# MagicaVoxel @ Ephtracy

# group
o 

# material
mtllib oveja-2-1.mtl
usemtl palette

# normals
vn -1 0 0
vn 1 0 0
vn 0 0 1
vn 0 0 -1
vn 0 -1 0
vn 0 1 0

# texcoords
vt 0.185547 0.5
vt 0.619141 0.5
vt 0.771484 0.5
vt 0.830078 0.5
vt 0.861328 0.5
vt 0.966797 0.5
vt 0.978516 0.5
vt 0.982422 0.5

# verts
v -0.7 1.2 -0.8
v -0.7 1.2 -0.9
v -0.7 1.6 -0.8
v -0.7 1.6 -0.9
v -0.6 1 -0.8
v -0.6 1 -0.9
v -0.6 1.2 -0.8
v -0.6 1.2 -0.9
v -0.6 1.2 -1
v -0.6 1.3 -1.1
v -0.6 1.3 -1.2
v -0.6 1.6 -0.8
v -0.6 1.6 -0.9
v -0.6 1.6 -1
v -0.6 1.8 -0.8
v -0.6 1.8 -0.9
v -0.6 1.8 -1.1
v -0.6 1.8 -1.2
v -0.5 1.1 -0.9
v -0.5 1.1 -1
v -0.5 1.2 -0.9
v -0.5 1.2 -1
v -0.5 1.2 -1.1
v -0.5 1.2 -1.2
v -0.5 1.3 -1.1
v -0.5 1.3 -1.2
v -0.5 1.6 -0.9
v -0.5 1.6 -1
v -0.5 1.7 -0.9
v -0.5 1.7 -1
v -0.5 1.8 -1.1
v -0.5 1.8 -1.2
v -0.5 1.9 -1.1
v -0.5 1.9 -1.2
v -0.4 0.9 -0.8
v -0.4 0.9 -0.9
v -0.4 1 -0.8
v -0.4 1 -0.9
v -0.4 1 -1
v -0.4 1.1 -0.9
v -0.4 1.1 -1
v -0.4 1.1 -1.1
v -0.4 1.1 -1.2
v -0.4 1.2 -1
v -0.4 1.2 -1.1
v -0.4 1.2 -1.2
v -0.4 1.3 -1.2
v -0.4 1.3 -1.8
v -0.4 1.4 -1.6
v -0.4 1.4 -1.7
v -0.4 1.4 -1.8
v -0.4 1.5 -1.6
v -0.4 1.5 -1.7
v -0.4 1.5 -1.8
v -0.4 1.6 -1.3
v -0.4 1.6 -1.4
v -0.4 1.6 -1.5
v -0.4 1.7 -0.9
v -0.4 1.7 -1
v -0.4 1.7 -1.1
v -0.4 1.7 -1.3
v -0.4 1.7 -1.4
v -0.4 1.7 -1.7
v -0.4 1.7 -1.8
v -0.4 1.8 -0.8
v -0.4 1.8 -0.9
v -0.4 1.8 -1
v -0.4 1.8 -1.2
v -0.4 1.8 -1.3
v -0.4 1.8 -1.5
v -0.4 1.8 -1.6
v -0.4 1.8 -1.7
v -0.4 1.9 -0.8
v -0.4 1.9 -0.9
v -0.4 1.9 -1
v -0.4 1.9 -1.1
v -0.4 1.9 -1.2
v -0.4 1.9 -1.4
v -0.4 1.9 -1.5
v -0.4 1.9 -1.6
v -0.4 2 -0.9
v -0.4 2 -1
v -0.4 2 -1.2
v -0.4 2 -1.4
v -0.4 2.1 -1.1
v -0.4 2.1 -1.2
v -0.3 1 -1.1
v -0.3 1 -1.2
v -0.3 1.1 -1.1
v -0.3 1.1 -1.2
v -0.3 1.7 -1.7
v -0.3 1.7 -1.8
v -0.3 1.8 -1.6
v -0.3 1.8 -1.7
v -0.3 1.8 -1.8
v -0.3 1.9 -0.8
v -0.3 1.9 -0.9
v -0.3 1.9 -1
v -0.3 1.9 -1.1
v -0.3 1.9 -1.4
v -0.3 1.9 -1.5
v -0.3 1.9 -1.6
v -0.3 1.9 -1.7
v -0.3 2 -0.8
v -0.3 2 -0.9
v -0.3 2 -1
v -0.3 2 -1.1
v -0.3 2 -1.4
v -0.3 2 -1.5
v -0.2 1.9 -1.5
v -0.2 1.9 -1.6
v -0.2 2 -0.8
v -0.2 2 -1.1
v -0.2 2 -1.5
v -0.2 2 -1.6
v -0.2 2.1 -0.8
v -0.2 2.1 -1.1
v -0.1 1 -1.1
v -0.1 1 -1.2
v -0.1 1.2 -1.1
v -0.1 1.3 -1.1
v -0.1 1.3 -1.2
v -0.1 1.9 -1.1
v -0.1 1.9 -1.2
v -0.1 2 -1.2
v -0.1 2.1 -1.1
v -0.1 2.1 -1.2
v -0.2 1 -1.1
v -0.2 1 -1.2
v -0.2 1.2 -1.1
v -0.2 1.3 -1.1
v -0.2 1.3 -1.2
v -0.2 1.9 -1.1
v -0.2 1.9 -1.2
v -0.2 2 -1.2
v -0.2 2.1 -1.1
v -0.2 2.1 -1.2
v -0.1 1.9 -1.5
v -0.1 1.9 -1.6
v -0.1 2 -0.8
v -0.1 2 -1.1
v -0.1 2 -1.5
v -0.1 2 -1.6
v -0.1 2.1 -0.8
v -0.1 2.1 -1.1
v 0 1 -1.1
v 0 1 -1.2
v 0 1.1 -1.1
v 0 1.1 -1.2
v 0 1.7 -1.7
v 0 1.7 -1.8
v 0 1.8 -1.6
v 0 1.8 -1.7
v 0 1.8 -1.8
v 0 1.9 -0.8
v 0 1.9 -0.9
v 0 1.9 -1
v 0 1.9 -1.1
v 0 1.9 -1.4
v 0 1.9 -1.5
v 0 1.9 -1.6
v 0 1.9 -1.7
v 0 2 -0.8
v 0 2 -0.9
v 0 2 -1
v 0 2 -1.1
v 0 2 -1.4
v 0 2 -1.5
v 0.1 0.9 -0.8
v 0.1 0.9 -0.9
v 0.1 1 -0.8
v 0.1 1 -0.9
v 0.1 1 -1
v 0.1 1.1 -0.9
v 0.1 1.1 -1
v 0.1 1.1 -1.1
v 0.1 1.1 -1.2
v 0.1 1.2 -1
v 0.1 1.2 -1.1
v 0.1 1.2 -1.2
v 0.1 1.3 -1.2
v 0.1 1.3 -1.8
v 0.1 1.4 -1.6
v 0.1 1.4 -1.7
v 0.1 1.4 -1.8
v 0.1 1.5 -1.6
v 0.1 1.5 -1.7
v 0.1 1.5 -1.8
v 0.1 1.6 -1.3
v 0.1 1.6 -1.4
v 0.1 1.6 -1.5
v 0.1 1.7 -0.9
v 0.1 1.7 -1
v 0.1 1.7 -1.1
v 0.1 1.7 -1.3
v 0.1 1.7 -1.4
v 0.1 1.7 -1.7
v 0.1 1.7 -1.8
v 0.1 1.8 -0.8
v 0.1 1.8 -0.9
v 0.1 1.8 -1
v 0.1 1.8 -1.2
v 0.1 1.8 -1.3
v 0.1 1.8 -1.5
v 0.1 1.8 -1.6
v 0.1 1.8 -1.7
v 0.1 1.9 -0.8
v 0.1 1.9 -0.9
v 0.1 1.9 -1
v 0.1 1.9 -1.1
v 0.1 1.9 -1.2
v 0.1 1.9 -1.4
v 0.1 1.9 -1.5
v 0.1 1.9 -1.6
v 0.1 2 -0.9
v 0.1 2 -1
v 0.1 2 -1.2
v 0.1 2 -1.4
v 0.1 2.1 -1.1
v 0.1 2.1 -1.2
v 0.2 1.1 -0.9
v 0.2 1.1 -1
v 0.2 1.2 -0.9
v 0.2 1.2 -1
v 0.2 1.2 -1.1
v 0.2 1.2 -1.2
v 0.2 1.3 -1.1
v 0.2 1.3 -1.2
v 0.2 1.6 -0.9
v 0.2 1.6 -1
v 0.2 1.7 -0.9
v 0.2 1.7 -1
v 0.2 1.8 -1.1
v 0.2 1.8 -1.2
v 0.2 1.9 -1.1
v 0.2 1.9 -1.2
v 0.3 1 -0.8
v 0.3 1 -0.9
v 0.3 1.2 -0.8
v 0.3 1.2 -0.9
v 0.3 1.2 -1
v 0.3 1.3 -1.1
v 0.3 1.3 -1.2
v 0.3 1.6 -0.8
v 0.3 1.6 -0.9
v 0.3 1.6 -1
v 0.3 1.8 -0.8
v 0.3 1.8 -0.9
v 0.3 1.8 -1.1
v 0.3 1.8 -1.2
v 0.4 1.2 -0.8
v 0.4 1.2 -0.9
v 0.4 1.6 -0.8
v 0.4 1.6 -0.9
v -0.7 1.2 -0.8
v -0.7 1.6 -0.8
v -0.6 1 -0.8
v -0.6 1.2 -0.8
v -0.6 1.6 -0.8
v -0.6 1.8 -0.8
v -0.4 0.9 -0.8
v -0.4 1 -0.8
v -0.4 1.8 -0.8
v -0.4 1.9 -0.8
v -0.3 1.9 -0.8
v -0.3 2 -0.8
v -0.2 2 -0.8
v -0.2 2.1 -0.8
v -0.1 2 -0.8
v -0.1 2.1 -0.8
v 0 1.9 -0.8
v 0 2 -0.8
v 0.1 0.9 -0.8
v 0.1 1 -0.8
v 0.1 1.8 -0.8
v 0.1 1.9 -0.8
v 0.3 1 -0.8
v 0.3 1.2 -0.8
v 0.3 1.6 -0.8
v 0.3 1.8 -0.8
v 0.4 1.2 -0.8
v 0.4 1.6 -0.8
v -0.4 1.9 -0.9
v -0.4 2 -0.9
v -0.3 1.9 -0.9
v -0.3 2 -0.9
v 0 1.9 -0.9
v 0 2 -0.9
v 0.1 1.9 -0.9
v 0.1 2 -0.9
v -0.6 1.3 -1.1
v -0.6 1.8 -1.1
v -0.5 1.2 -1.1
v -0.5 1.3 -1.1
v -0.5 1.8 -1.1
v -0.5 1.9 -1.1
v -0.4 1.1 -1.1
v -0.4 1.2 -1.1
v -0.4 1.7 -1.1
v -0.4 1.9 -1.1
v -0.4 2.1 -1.1
v -0.3 1 -1.1
v -0.3 1.1 -1.1
v -0.3 1.9 -1.1
v -0.3 2 -1.1
v -0.2 1 -1.1
v -0.2 1.2 -1.1
v -0.2 2 -1.1
v -0.2 2.1 -1.1
v -0.1 1 -1.1
v -0.1 1.2 -1.1
v -0.1 2 -1.1
v -0.1 2.1 -1.1
v 0 1 -1.1
v 0 1.1 -1.1
v 0 1.9 -1.1
v 0 2 -1.1
v 0.1 1.1 -1.1
v 0.1 1.2 -1.1
v 0.1 1.7 -1.1
v 0.1 1.9 -1.1
v 0.1 2.1 -1.1
v 0.2 1.2 -1.1
v 0.2 1.3 -1.1
v 0.2 1.8 -1.1
v 0.2 1.9 -1.1
v 0.3 1.3 -1.1
v 0.3 1.8 -1.1
v -0.2 1.9 -1.2
v -0.2 2 -1.2
v -0.1 1.9 -1.2
v -0.1 2 -1.2
v -0.7 1.2 -0.9
v -0.7 1.6 -0.9
v -0.6 1 -0.9
v -0.6 1.2 -0.9
v -0.6 1.6 -0.9
v -0.6 1.8 -0.9
v -0.5 1.1 -0.9
v -0.5 1.2 -0.9
v -0.5 1.6 -0.9
v -0.5 1.7 -0.9
v -0.4 0.9 -0.9
v -0.4 1 -0.9
v -0.4 1.1 -0.9
v -0.4 1.7 -0.9
v -0.4 1.8 -0.9
v 0.1 0.9 -0.9
v 0.1 1 -0.9
v 0.1 1.1 -0.9
v 0.1 1.7 -0.9
v 0.1 1.8 -0.9
v 0.2 1.1 -0.9
v 0.2 1.2 -0.9
v 0.2 1.6 -0.9
v 0.2 1.7 -0.9
v 0.3 1 -0.9
v 0.3 1.2 -0.9
v 0.3 1.6 -0.9
v 0.3 1.8 -0.9
v 0.4 1.2 -0.9
v 0.4 1.6 -0.9
v -0.6 1.2 -1
v -0.6 1.6 -1
v -0.5 1.1 -1
v -0.5 1.2 -1
v -0.5 1.6 -1
v -0.5 1.7 -1
v -0.4 1 -1
v -0.4 1.1 -1
v -0.4 1.2 -1
v -0.4 1.7 -1
v -0.4 1.9 -1
v -0.4 2 -1
v -0.3 1.9 -1
v -0.3 2 -1
v 0 1.9 -1
v 0 2 -1
v 0.1 1 -1
v 0.1 1.1 -1
v 0.1 1.2 -1
v 0.1 1.7 -1
v 0.1 1.9 -1
v 0.1 2 -1
v 0.2 1.1 -1
v 0.2 1.2 -1
v 0.2 1.6 -1
v 0.2 1.7 -1
v 0.3 1.2 -1
v 0.3 1.6 -1
v -0.2 1.2 -1.1
v -0.2 1.3 -1.1
v -0.2 1.9 -1.1
v -0.2 2.1 -1.1
v -0.1 1.2 -1.1
v -0.1 1.3 -1.1
v -0.1 1.9 -1.1
v -0.1 2.1 -1.1
v -0.6 1.3 -1.2
v -0.6 1.8 -1.2
v -0.5 1.2 -1.2
v -0.5 1.3 -1.2
v -0.5 1.8 -1.2
v -0.5 1.9 -1.2
v -0.4 1.1 -1.2
v -0.4 1.2 -1.2
v -0.4 1.3 -1.2
v -0.4 1.8 -1.2
v -0.4 1.9 -1.2
v -0.4 2 -1.2
v -0.4 2.1 -1.2
v -0.3 1 -1.2
v -0.3 1.1 -1.2
v -0.3 1.3 -1.2
v -0.2 1 -1.2
v -0.2 1.3 -1.2
v -0.2 2 -1.2
v -0.2 2.1 -1.2
v -0.1 1 -1.2
v -0.1 1.3 -1.2
v -0.1 2 -1.2
v -0.1 2.1 -1.2
v 0 1 -1.2
v 0 1.1 -1.2
v 0 1.3 -1.2
v 0.1 1.1 -1.2
v 0.1 1.2 -1.2
v 0.1 1.3 -1.2
v 0.1 1.8 -1.2
v 0.1 1.9 -1.2
v 0.1 2 -1.2
v 0.1 2.1 -1.2
v 0.2 1.2 -1.2
v 0.2 1.3 -1.2
v 0.2 1.8 -1.2
v 0.2 1.9 -1.2
v 0.3 1.3 -1.2
v 0.3 1.8 -1.2
v -0.4 1.9 -1.4
v -0.4 2 -1.4
v -0.3 1.9 -1.4
v -0.3 2 -1.4
v 0 1.9 -1.4
v 0 2 -1.4
v 0.1 1.9 -1.4
v 0.1 2 -1.4
v -0.3 1.9 -1.5
v -0.3 2 -1.5
v -0.2 1.9 -1.5
v -0.2 2 -1.5
v -0.1 1.9 -1.5
v -0.1 2 -1.5
v 0 1.9 -1.5
v 0 2 -1.5
v -0.4 1.8 -1.6
v -0.4 1.9 -1.6
v -0.3 1.8 -1.6
v -0.3 1.9 -1.6
v -0.2 1.9 -1.6
v -0.2 2 -1.6
v -0.1 1.9 -1.6
v -0.1 2 -1.6
v 0 1.8 -1.6
v 0 1.9 -1.6
v 0.1 1.8 -1.6
v 0.1 1.9 -1.6
v -0.4 1.4 -1.7
v -0.4 1.5 -1.7
v -0.4 1.7 -1.7
v -0.4 1.8 -1.7
v -0.3 1.7 -1.7
v -0.3 1.8 -1.7
v -0.3 1.9 -1.7
v -0.2 1.5 -1.7
v -0.1 1.5 -1.7
v 0 1.7 -1.7
v 0 1.8 -1.7
v 0 1.9 -1.7
v 0.1 1.4 -1.7
v 0.1 1.5 -1.7
v 0.1 1.7 -1.7
v 0.1 1.8 -1.7
v -0.4 1.3 -1.8
v -0.4 1.4 -1.8
v -0.4 1.5 -1.8
v -0.4 1.7 -1.8
v -0.3 1.6 -1.8
v -0.3 1.7 -1.8
v -0.3 1.8 -1.8
v -0.2 1.5 -1.8
v -0.2 1.6 -1.8
v -0.2 1.7 -1.8
v -0.1 1.5 -1.8
v -0.1 1.6 -1.8
v -0.1 1.7 -1.8
v 0 1.6 -1.8
v 0 1.7 -1.8
v 0 1.8 -1.8
v 0.1 1.3 -1.8
v 0.1 1.4 -1.8
v 0.1 1.5 -1.8
v 0.1 1.7 -1.8
v -0.4 0.9 -0.8
v 0.1 0.9 -0.8
v -0.4 0.9 -0.9
v 0.1 0.9 -0.9
v -0.6 1 -0.8
v -0.4 1 -0.8
v 0.1 1 -0.8
v 0.3 1 -0.8
v -0.6 1 -0.9
v -0.4 1 -0.9
v 0.1 1 -0.9
v 0.3 1 -0.9
v -0.4 1 -1
v 0.1 1 -1
v -0.3 1 -1.1
v -0.2 1 -1.1
v -0.1 1 -1.1
v 0 1 -1.1
v -0.3 1 -1.2
v -0.2 1 -1.2
v -0.1 1 -1.2
v 0 1 -1.2
v -0.5 1.1 -0.9
v -0.4 1.1 -0.9
v 0.1 1.1 -0.9
v 0.2 1.1 -0.9
v -0.5 1.1 -1
v -0.4 1.1 -1
v 0.1 1.1 -1
v 0.2 1.1 -1
v -0.4 1.1 -1.1
v -0.3 1.1 -1.1
v 0 1.1 -1.1
v 0.1 1.1 -1.1
v -0.4 1.1 -1.2
v -0.3 1.1 -1.2
v 0 1.1 -1.2
v 0.1 1.1 -1.2
v -0.7 1.2 -0.8
v -0.6 1.2 -0.8
v 0.3 1.2 -0.8
v 0.4 1.2 -0.8
v -0.7 1.2 -0.9
v -0.6 1.2 -0.9
v -0.5 1.2 -0.9
v 0.2 1.2 -0.9
v 0.3 1.2 -0.9
v 0.4 1.2 -0.9
v -0.6 1.2 -1
v -0.5 1.2 -1
v -0.4 1.2 -1
v 0.1 1.2 -1
v 0.2 1.2 -1
v 0.3 1.2 -1
v -0.5 1.2 -1.1
v -0.4 1.2 -1.1
v -0.2 1.2 -1.1
v -0.1 1.2 -1.1
v 0.1 1.2 -1.1
v 0.2 1.2 -1.1
v -0.5 1.2 -1.2
v -0.4 1.2 -1.2
v 0.1 1.2 -1.2
v 0.2 1.2 -1.2
v -0.6 1.3 -1.1
v -0.5 1.3 -1.1
v -0.2 1.3 -1.1
v -0.1 1.3 -1.1
v 0.2 1.3 -1.1
v 0.3 1.3 -1.1
v -0.6 1.3 -1.2
v -0.5 1.3 -1.2
v -0.4 1.3 -1.2
v -0.3 1.3 -1.2
v -0.2 1.3 -1.2
v -0.1 1.3 -1.2
v 0 1.3 -1.2
v 0.1 1.3 -1.2
v 0.2 1.3 -1.2
v 0.3 1.3 -1.2
v -0.3 1.3 -1.5
v 0 1.3 -1.5
v -0.4 1.3 -1.8
v 0.1 1.3 -1.8
v -0.4 1.5 -1.7
v -0.2 1.5 -1.7
v -0.1 1.5 -1.7
v 0.1 1.5 -1.7
v -0.4 1.5 -1.8
v -0.2 1.5 -1.8
v -0.1 1.5 -1.8
v 0.1 1.5 -1.8
v -0.4 1.4 -1.7
v 0.1 1.4 -1.7
v -0.4 1.4 -1.8
v 0.1 1.4 -1.8
v -0.7 1.6 -0.8
v -0.6 1.6 -0.8
v 0.3 1.6 -0.8
v 0.4 1.6 -0.8
v -0.7 1.6 -0.9
v -0.6 1.6 -0.9
v -0.5 1.6 -0.9
v 0.2 1.6 -0.9
v 0.3 1.6 -0.9
v 0.4 1.6 -0.9
v -0.6 1.6 -1
v -0.5 1.6 -1
v 0.2 1.6 -1
v 0.3 1.6 -1
v -0.5 1.7 -0.9
v -0.4 1.7 -0.9
v 0.1 1.7 -0.9
v 0.2 1.7 -0.9
v -0.5 1.7 -1
v -0.4 1.7 -1
v 0.1 1.7 -1
v 0.2 1.7 -1
v -0.4 1.7 -1.7
v -0.3 1.7 -1.7
v 0 1.7 -1.7
v 0.1 1.7 -1.7
v -0.4 1.7 -1.8
v -0.3 1.7 -1.8
v 0 1.7 -1.8
v 0.1 1.7 -1.8
v -0.6 1.8 -0.8
v -0.4 1.8 -0.8
v 0.1 1.8 -0.8
v 0.3 1.8 -0.8
v -0.6 1.8 -0.9
v -0.4 1.8 -0.9
v 0.1 1.8 -0.9
v 0.3 1.8 -0.9
v -0.6 1.8 -1.1
v -0.5 1.8 -1.1
v 0.2 1.8 -1.1
v 0.3 1.8 -1.1
v -0.6 1.8 -1.2
v -0.5 1.8 -1.2
v 0.2 1.8 -1.2
v 0.3 1.8 -1.2
v -0.4 1.8 -1.6
v -0.3 1.8 -1.6
v 0 1.8 -1.6
v 0.1 1.8 -1.6
v -0.4 1.8 -1.7
v -0.3 1.8 -1.7
v 0 1.8 -1.7
v 0.1 1.8 -1.7
v -0.3 1.8 -1.8
v 0 1.8 -1.8
v -0.4 1.9 -0.8
v -0.3 1.9 -0.8
v 0 1.9 -0.8
v 0.1 1.9 -0.8
v -0.4 1.9 -0.9
v -0.3 1.9 -0.9
v 0 1.9 -0.9
v 0.1 1.9 -0.9
v -0.4 1.9 -1
v -0.3 1.9 -1
v 0 1.9 -1
v 0.1 1.9 -1
v -0.5 1.9 -1.1
v -0.4 1.9 -1.1
v -0.3 1.9 -1.1
v -0.2 1.9 -1.1
v -0.1 1.9 -1.1
v 0 1.9 -1.1
v 0.1 1.9 -1.1
v 0.2 1.9 -1.1
v -0.5 1.9 -1.2
v -0.4 1.9 -1.2
v -0.2 1.9 -1.2
v -0.1 1.9 -1.2
v 0.1 1.9 -1.2
v 0.2 1.9 -1.2
v -0.4 1.9 -1.4
v -0.3 1.9 -1.4
v 0 1.9 -1.4
v 0.1 1.9 -1.4
v -0.4 1.9 -1.5
v -0.3 1.9 -1.5
v -0.2 1.9 -1.5
v -0.1 1.9 -1.5
v 0 1.9 -1.5
v 0.1 1.9 -1.5
v -0.4 1.9 -1.6
v -0.3 1.9 -1.6
v -0.2 1.9 -1.6
v -0.1 1.9 -1.6
v 0 1.9 -1.6
v 0.1 1.9 -1.6
v -0.3 1.9 -1.7
v 0 1.9 -1.7
v -0.3 2 -0.8
v -0.2 2 -0.8
v -0.1 2 -0.8
v 0 2 -0.8
v -0.4 2 -0.9
v -0.3 2 -0.9
v 0 2 -0.9
v 0.1 2 -0.9
v -0.4 2 -1
v -0.3 2 -1
v 0 2 -1
v 0.1 2 -1
v -0.3 2 -1.1
v -0.2 2 -1.1
v -0.1 2 -1.1
v 0 2 -1.1
v -0.4 2 -1.2
v -0.2 2 -1.2
v -0.1 2 -1.2
v 0.1 2 -1.2
v -0.2 2 -1.3
v -0.1 2 -1.3
v -0.4 2 -1.4
v -0.3 2 -1.4
v 0 2 -1.4
v 0.1 2 -1.4
v -0.3 2 -1.5
v -0.2 2 -1.5
v -0.1 2 -1.5
v 0 2 -1.5
v -0.2 2 -1.6
v -0.1 2 -1.6
v -0.2 2.1 -0.8
v -0.1 2.1 -0.8
v -0.4 2.1 -1.1
v -0.2 2.1 -1.1
v -0.1 2.1 -1.1
v 0.1 2.1 -1.1
v -0.4 2.1 -1.2
v -0.2 2.1 -1.2
v -0.1 2.1 -1.2
v 0.1 2.1 -1.2

# faces
f 3/2/1 2/2/1 1/2/1
f 4/2/1 2/2/1 3/2/1
f 7/2/1 6/2/1 5/2/1
f 8/2/1 6/2/1 7/2/1
f 13/2/1 9/2/1 8/2/1
f 14/2/1 9/2/1 13/2/1
f 15/2/1 13/2/1 12/2/1
f 16/2/1 13/2/1 15/2/1
f 17/2/1 11/2/1 10/2/1
f 18/2/1 11/2/1 17/2/1
f 21/2/1 20/2/1 19/2/1
f 22/2/1 20/2/1 21/2/1
f 25/2/1 24/2/1 23/2/1
f 26/2/1 24/2/1 25/2/1
f 29/2/1 28/2/1 27/2/1
f 30/2/1 28/2/1 29/2/1
f 33/2/1 32/2/1 31/2/1
f 34/2/1 32/2/1 33/2/1
f 37/2/1 36/2/1 35/2/1
f 38/2/1 36/2/1 37/2/1
f 40/2/1 39/2/1 38/2/1
f 41/2/1 39/2/1 40/2/1
f 45/2/1 43/2/1 42/2/1
f 46/2/1 43/2/1 45/2/1
f 49/3/1 48/3/1 47/3/1
f 50/3/1 48/3/1 49/3/1
f 51/3/1 48/3/1 50/3/1
f 52/3/1 49/3/1 47/3/1
f 52/5/1 50/5/1 49/5/1
f 53/5/1 50/5/1 52/5/1
f 55/3/1 52/3/1 47/3/1
f 55/3/1 54/3/1 53/3/1
f 55/3/1 53/3/1 52/3/1
f 56/3/1 54/3/1 55/3/1
f 57/3/1 54/3/1 56/3/1
f 59/2/1 45/2/1 44/2/1
f 60/2/1 45/2/1 59/2/1
f 61/3/1 55/3/1 47/3/1
f 61/5/1 56/5/1 55/5/1
f 62/1/1 57/1/1 56/1/1
f 62/5/1 56/5/1 61/5/1
f 63/3/1 54/3/1 57/3/1
f 64/3/1 54/3/1 63/3/1
f 66/2/1 59/2/1 58/2/1
f 67/5/1 60/5/1 59/5/1
f 67/2/1 59/2/1 66/2/1
f 68/3/1 61/3/1 47/3/1
f 69/1/1 62/1/1 61/1/1
f 69/3/1 61/3/1 68/3/1
f 70/1/1 57/1/1 62/1/1
f 70/1/1 62/1/1 69/1/1
f 70/3/1 63/3/1 57/3/1
f 71/3/1 63/3/1 70/3/1
f 72/3/1 63/3/1 71/3/1
f 73/2/1 66/2/1 65/2/1
f 74/5/1 67/5/1 66/5/1
f 74/2/1 66/2/1 73/2/1
f 75/5/1 60/5/1 67/5/1
f 75/5/1 67/5/1 74/5/1
f 76/5/1 60/5/1 75/5/1
f 77/7/1 69/7/1 68/7/1
f 77/7/1 70/7/1 69/7/1
f 78/7/1 70/7/1 77/7/1
f 79/3/1 71/3/1 70/3/1
f 79/7/1 70/7/1 78/7/1
f 80/3/1 71/3/1 79/3/1
f 81/5/1 75/5/1 74/5/1
f 82/5/1 75/5/1 81/5/1
f 83/2/1 77/2/1 76/2/1
f 83/2/1 78/2/1 77/2/1
f 84/2/1 78/2/1 83/2/1
f 85/2/1 83/2/1 76/2/1
f 86/2/1 83/2/1 85/2/1
f 89/2/1 88/2/1 87/2/1
f 90/2/1 88/2/1 89/2/1
f 94/3/1 92/3/1 91/3/1
f 95/3/1 92/3/1 94/3/1
f 102/3/1 94/3/1 93/3/1
f 103/3/1 94/3/1 102/3/1
f 104/2/1 97/2/1 96/2/1
f 105/2/1 97/2/1 104/2/1
f 106/2/1 99/2/1 98/2/1
f 107/2/1 99/2/1 106/2/1
f 108/2/1 101/2/1 100/2/1
f 109/2/1 101/2/1 108/2/1
f 114/2/1 111/2/1 110/2/1
f 115/2/1 111/2/1 114/2/1
f 116/2/1 113/2/1 112/2/1
f 117/2/1 113/2/1 116/2/1
f 120/2/1 119/2/1 118/2/1
f 121/2/1 119/2/1 120/2/1
f 122/2/1 119/2/1 121/2/1
f 125/2/1 124/2/1 123/2/1
f 126/2/1 125/2/1 123/2/1
f 127/2/1 125/2/1 126/2/1
f 128/2/2 129/2/2 130/2/2
f 130/2/2 129/2/2 131/2/2
f 131/2/2 129/2/2 132/2/2
f 133/2/2 134/2/2 135/2/2
f 133/2/2 135/2/2 136/2/2
f 136/2/2 135/2/2 137/2/2
f 138/2/2 139/2/2 142/2/2
f 142/2/2 139/2/2 143/2/2
f 140/2/2 141/2/2 144/2/2
f 144/2/2 141/2/2 145/2/2
f 146/2/2 147/2/2 148/2/2
f 148/2/2 147/2/2 149/2/2
f 150/3/2 151/3/2 153/3/2
f 153/3/2 151/3/2 154/3/2
f 152/3/2 153/3/2 161/3/2
f 161/3/2 153/3/2 162/3/2
f 155/2/2 156/2/2 163/2/2
f 163/2/2 156/2/2 164/2/2
f 157/2/2 158/2/2 165/2/2
f 165/2/2 158/2/2 166/2/2
f 159/2/2 160/2/2 167/2/2
f 167/2/2 160/2/2 168/2/2
f 169/2/2 170/2/2 171/2/2
f 171/2/2 170/2/2 172/2/2
f 172/2/2 173/2/2 174/2/2
f 174/2/2 173/2/2 175/2/2
f 176/2/2 177/2/2 179/2/2
f 179/2/2 177/2/2 180/2/2
f 181/3/2 182/3/2 183/3/2
f 183/3/2 182/3/2 184/3/2
f 184/3/2 182/3/2 185/3/2
f 181/3/2 183/3/2 186/3/2
f 183/5/2 184/5/2 186/5/2
f 186/5/2 184/5/2 187/5/2
f 181/3/2 186/3/2 189/3/2
f 187/3/2 188/3/2 189/3/2
f 186/3/2 187/3/2 189/3/2
f 189/3/2 188/3/2 190/3/2
f 190/3/2 188/3/2 191/3/2
f 178/2/2 179/2/2 193/2/2
f 193/2/2 179/2/2 194/2/2
f 181/3/2 189/3/2 195/3/2
f 189/5/2 190/5/2 195/5/2
f 190/1/2 191/1/2 196/1/2
f 195/5/2 190/5/2 196/5/2
f 191/3/2 188/3/2 197/3/2
f 197/3/2 188/3/2 198/3/2
f 192/2/2 193/2/2 200/2/2
f 193/5/2 194/5/2 201/5/2
f 200/2/2 193/2/2 201/2/2
f 181/3/2 195/3/2 202/3/2
f 195/1/2 196/1/2 203/1/2
f 202/3/2 195/3/2 203/3/2
f 196/1/2 191/1/2 204/1/2
f 203/1/2 196/1/2 204/1/2
f 191/3/2 197/3/2 204/3/2
f 204/3/2 197/3/2 205/3/2
f 205/3/2 197/3/2 206/3/2
f 199/2/2 200/2/2 207/2/2
f 200/5/2 201/5/2 208/5/2
f 207/2/2 200/2/2 208/2/2
f 201/5/2 194/5/2 209/5/2
f 208/5/2 201/5/2 209/5/2
f 209/5/2 194/5/2 210/5/2
f 202/5/2 203/5/2 211/5/2
f 203/5/2 204/5/2 211/5/2
f 211/5/2 204/5/2 212/5/2
f 204/3/2 205/3/2 213/3/2
f 212/5/2 204/5/2 213/5/2
f 213/3/2 205/3/2 214/3/2
f 208/5/2 209/5/2 215/5/2
f 215/5/2 209/5/2 216/5/2
f 210/2/2 211/2/2 217/2/2
f 211/2/2 212/2/2 217/2/2
f 217/2/2 212/2/2 218/2/2
f 210/2/2 217/2/2 219/2/2
f 219/2/2 217/2/2 220/2/2
f 221/2/2 222/2/2 223/2/2
f 223/2/2 222/2/2 224/2/2
f 225/2/2 226/2/2 227/2/2
f 227/2/2 226/2/2 228/2/2
f 229/2/2 230/2/2 231/2/2
f 231/2/2 230/2/2 232/2/2
f 233/2/2 234/2/2 235/2/2
f 235/2/2 234/2/2 236/2/2
f 237/2/2 238/2/2 239/2/2
f 239/2/2 238/2/2 240/2/2
f 240/2/2 241/2/2 245/2/2
f 245/2/2 241/2/2 246/2/2
f 244/2/2 245/2/2 247/2/2
f 247/2/2 245/2/2 248/2/2
f 242/2/2 243/2/2 249/2/2
f 249/2/2 243/2/2 250/2/2
f 251/2/2 252/2/2 253/2/2
f 253/2/2 252/2/2 254/2/2
f 258/2/3 256/2/3 255/2/3
f 259/2/3 256/2/3 258/2/3
f 262/2/3 258/2/3 257/2/3
f 262/2/3 260/2/3 259/2/3
f 262/2/3 259/2/3 258/2/3
f 263/2/3 260/2/3 262/2/3
f 265/2/3 262/2/3 261/2/3
f 265/2/3 264/2/3 263/2/3
f 265/2/3 263/2/3 262/2/3
f 267/2/3 266/2/3 265/2/3
f 269/2/3 267/2/3 265/2/3
f 269/2/3 268/2/3 267/2/3
f 270/2/3 268/2/3 269/2/3
f 271/2/3 265/2/3 261/2/3
f 271/2/3 269/2/3 265/2/3
f 272/2/3 269/2/3 271/2/3
f 273/2/3 271/2/3 261/2/3
f 274/2/3 271/2/3 273/2/3
f 275/2/3 271/2/3 274/2/3
f 276/2/3 271/2/3 275/2/3
f 277/2/3 275/2/3 274/2/3
f 278/2/3 275/2/3 277/2/3
f 279/2/3 275/2/3 278/2/3
f 280/2/3 275/2/3 279/2/3
f 281/2/3 279/2/3 278/2/3
f 282/2/3 279/2/3 281/2/3
f 285/5/3 284/5/3 283/5/3
f 286/5/3 284/5/3 285/5/3
f 289/5/3 288/5/3 287/5/3
f 290/5/3 288/5/3 289/5/3
f 294/2/3 292/2/3 291/2/3
f 295/2/3 292/2/3 294/2/3
f 298/2/3 294/2/3 293/2/3
f 298/2/3 296/2/3 295/2/3
f 298/2/3 295/2/3 294/2/3
f 299/2/3 296/2/3 298/2/3
f 300/2/3 296/2/3 299/2/3
f 303/2/3 298/2/3 297/2/3
f 304/2/3 301/2/3 300/2/3
f 305/2/3 301/2/3 304/2/3
f 306/2/3 303/2/3 302/2/3
f 307/2/3 298/2/3 303/2/3
f 307/2/3 303/2/3 306/2/3
f 308/2/3 301/2/3 305/2/3
f 309/2/3 301/2/3 308/2/3
f 314/2/3 311/2/3 310/2/3
f 315/2/3 311/2/3 314/2/3
f 317/2/3 313/2/3 312/2/3
f 318/2/3 311/2/3 315/2/3
f 319/2/3 311/2/3 318/2/3
f 321/2/3 317/2/3 316/2/3
f 322/2/3 313/2/3 317/2/3
f 322/2/3 317/2/3 321/2/3
f 323/2/3 320/2/3 319/2/3
f 323/2/3 321/2/3 320/2/3
f 324/2/3 321/2/3 323/2/3
f 325/2/3 321/2/3 324/2/3
f 326/2/3 321/2/3 325/2/3
f 327/2/3 325/2/3 324/2/3
f 328/2/3 325/2/3 327/2/3
f 331/5/3 330/5/3 329/5/3
f 332/5/3 330/5/3 331/5/3
f 333/2/4 334/2/4 336/2/4
f 336/2/4 334/2/4 337/2/4
f 335/2/4 336/2/4 339/2/4
f 339/2/4 336/2/4 340/2/4
f 337/2/4 338/2/4 341/2/4
f 341/2/4 338/2/4 342/2/4
f 335/2/4 339/2/4 344/2/4
f 344/2/4 339/2/4 345/2/4
f 342/2/4 338/2/4 346/2/4
f 346/2/4 338/2/4 347/2/4
f 343/2/4 344/2/4 348/2/4
f 348/2/4 344/2/4 349/2/4
f 349/2/4 350/2/4 353/2/4
f 351/2/4 352/2/4 356/2/4
f 353/2/4 354/2/4 357/2/4
f 349/2/4 353/2/4 357/2/4
f 357/2/4 354/2/4 358/2/4
f 355/2/4 356/2/4 359/2/4
f 356/2/4 352/2/4 360/2/4
f 359/2/4 356/2/4 360/2/4
f 358/2/4 359/2/4 361/2/4
f 361/2/4 359/2/4 362/2/4
f 363/2/4 364/2/4 366/2/4
f 366/2/4 364/2/4 367/2/4
f 365/2/4 366/2/4 370/2/4
f 367/2/4 368/2/4 370/2/4
f 366/2/4 367/2/4 370/2/4
f 370/2/4 368/2/4 371/2/4
f 371/2/4 368/2/4 372/2/4
f 373/5/4 374/5/4 375/5/4
f 375/5/4 374/5/4 376/5/4
f 369/2/4 370/2/4 379/2/4
f 370/2/4 371/2/4 379/2/4
f 379/2/4 371/2/4 380/2/4
f 380/2/4 371/2/4 381/2/4
f 377/5/4 378/5/4 383/5/4
f 383/5/4 378/5/4 384/5/4
f 381/2/4 382/2/4 385/2/4
f 380/2/4 381/2/4 385/2/4
f 385/2/4 382/2/4 386/2/4
f 386/2/4 382/2/4 387/2/4
f 387/2/4 382/2/4 388/2/4
f 386/2/4 387/2/4 389/2/4
f 389/2/4 387/2/4 390/2/4
f 391/2/4 392/2/4 395/2/4
f 395/2/4 392/2/4 396/2/4
f 393/2/4 394/2/4 397/2/4
f 397/2/4 394/2/4 398/2/4
f 399/2/4 400/2/4 402/2/4
f 402/2/4 400/2/4 403/2/4
f 401/2/4 402/2/4 406/2/4
f 403/2/4 404/2/4 406/2/4
f 402/2/4 403/2/4 406/2/4
f 406/2/4 404/2/4 407/2/4
f 407/2/4 404/2/4 408/2/4
f 408/2/4 404/2/4 409/2/4
f 405/2/4 406/2/4 413/2/4
f 406/2/4 407/2/4 413/2/4
f 413/2/4 407/2/4 414/2/4
f 412/2/4 413/2/4 415/2/4
f 413/2/4 414/2/4 415/2/4
f 415/2/4 414/2/4 416/2/4
f 410/2/4 411/2/4 417/2/4
f 417/2/4 411/2/4 418/2/4
f 419/2/4 420/2/4 423/2/4
f 423/2/4 420/2/4 424/2/4
f 424/2/4 420/2/4 425/2/4
f 424/2/4 425/2/4 426/2/4
f 426/2/4 425/2/4 427/2/4
f 427/2/4 425/2/4 428/2/4
f 421/2/4 422/2/4 431/2/4
f 431/2/4 422/2/4 432/2/4
f 429/2/4 430/2/4 433/2/4
f 427/2/4 428/2/4 433/2/4
f 428/2/4 429/2/4 433/2/4
f 433/2/4 430/2/4 434/2/4
f 434/2/4 430/2/4 435/2/4
f 435/2/4 430/2/4 436/2/4
f 434/2/4 435/2/4 437/2/4
f 437/2/4 435/2/4 438/2/4
f 439/2/4 440/2/4 441/2/4
f 441/2/4 440/2/4 442/2/4
f 443/2/4 444/2/4 445/2/4
f 445/2/4 444/2/4 446/2/4
f 447/2/4 448/2/4 449/2/4
f 449/2/4 448/2/4 450/2/4
f 451/2/4 452/2/4 453/2/4
f 453/2/4 452/2/4 454/2/4
f 455/3/4 456/3/4 457/3/4
f 457/3/4 456/3/4 458/3/4
f 459/2/4 460/2/4 461/2/4
f 461/2/4 460/2/4 462/2/4
f 463/3/4 464/3/4 465/3/4
f 465/3/4 464/3/4 466/3/4
f 469/3/4 470/3/4 471/3/4
f 471/3/4 470/3/4 472/3/4
f 467/5/4 468/5/4 474/5/4
f 467/5/4 474/5/4 475/5/4
f 472/3/4 473/3/4 477/3/4
f 477/3/4 473/3/4 478/3/4
f 467/5/4 475/5/4 479/5/4
f 479/5/4 475/5/4 480/5/4
f 476/3/4 477/3/4 481/3/4
f 481/3/4 477/3/4 482/3/4
f 485/3/4 486/3/4 487/3/4
f 487/3/4 486/3/4 488/3/4
f 485/3/4 487/3/4 490/3/4
f 487/7/4 488/7/4 491/7/4
f 490/3/4 487/3/4 491/3/4
f 488/3/4 489/3/4 492/3/4
f 491/7/4 488/7/4 492/7/4
f 490/4/4 491/4/4 493/4/4
f 491/3/4 492/3/4 494/3/4
f 493/4/4 491/4/4 494/4/4
f 492/3/4 489/3/4 495/3/4
f 494/3/4 492/3/4 495/3/4
f 493/3/4 494/3/4 496/3/4
f 494/7/4 495/7/4 496/7/4
f 495/3/4 489/3/4 497/3/4
f 496/7/4 495/7/4 497/7/4
f 497/3/4 489/3/4 498/3/4
f 483/3/4 484/3/4 499/3/4
f 499/3/4 484/3/4 500/3/4
f 493/3/4 496/3/4 501/3/4
f 496/3/4 497/3/4 501/3/4
f 501/3/4 497/3/4 502/3/4
f 505/2/5 504/2/5 503/2/5
f 506/2/5 504/2/5 505/2/5
f 511/2/5 508/2/5 507/2/5
f 512/2/5 508/2/5 511/2/5
f 513/2/5 510/2/5 509/2/5
f 514/2/5 510/2/5 513/2/5
f 515/2/5 513/2/5 512/2/5
f 516/2/5 513/2/5 515/2/5
f 521/2/5 518/2/5 517/2/5
f 522/2/5 518/2/5 521/2/5
f 523/2/5 520/2/5 519/2/5
f 524/2/5 520/2/5 523/2/5
f 529/2/5 526/2/5 525/2/5
f 530/2/5 526/2/5 529/2/5
f 531/2/5 528/2/5 527/2/5
f 532/2/5 528/2/5 531/2/5
f 537/2/5 534/2/5 533/2/5
f 538/2/5 534/2/5 537/2/5
f 539/2/5 536/2/5 535/2/5
f 540/2/5 536/2/5 539/2/5
f 545/2/5 542/2/5 541/2/5
f 546/2/5 542/2/5 545/2/5
f 549/2/5 544/2/5 543/2/5
f 550/2/5 544/2/5 549/2/5
f 551/2/5 547/2/5 546/2/5
f 552/2/5 547/2/5 551/2/5
f 555/2/5 549/2/5 548/2/5
f 556/2/5 549/2/5 555/2/5
f 558/2/5 554/2/5 553/2/5
f 559/2/5 554/2/5 558/2/5
f 560/2/5 554/2/5 559/2/5
f 561/2/5 554/2/5 560/2/5
f 563/2/5 558/2/5 557/2/5
f 564/2/5 558/2/5 563/2/5
f 565/2/5 562/2/5 561/2/5
f 566/2/5 562/2/5 565/2/5
f 573/2/5 568/2/5 567/2/5
f 574/2/5 568/2/5 573/2/5
f 577/7/5 570/7/5 569/7/5
f 578/7/5 570/7/5 577/7/5
f 581/2/5 572/2/5 571/2/5
f 582/2/5 572/2/5 581/2/5
f 583/3/5 576/3/5 575/3/5
f 583/7/5 577/7/5 576/7/5
f 583/7/5 579/7/5 578/7/5
f 583/7/5 578/7/5 577/7/5
f 584/3/5 580/3/5 579/3/5
f 584/7/5 579/7/5 583/7/5
f 585/3/5 583/3/5 575/3/5
f 585/3/5 584/3/5 583/3/5
f 586/3/5 580/3/5 584/3/5
f 586/3/5 584/3/5 585/3/5
f 591/3/5 588/3/5 587/3/5
f 592/4/5 589/4/5 588/4/5
f 592/3/5 588/3/5 591/3/5
f 593/3/5 590/3/5 589/3/5
f 593/4/5 589/4/5 592/4/5
f 594/3/5 590/3/5 593/3/5
f 595/3/6 596/3/6 597/3/6
f 597/3/6 596/3/6 598/3/6
f 599/2/6 600/2/6 603/2/6
f 603/2/6 600/2/6 604/2/6
f 601/2/6 602/2/6 607/2/6
f 607/2/6 602/2/6 608/2/6
f 604/2/6 605/2/6 609/2/6
f 609/2/6 605/2/6 610/2/6
f 606/2/6 607/2/6 611/2/6
f 611/2/6 607/2/6 612/2/6
f 613/2/6 614/2/6 617/2/6
f 617/2/6 614/2/6 618/2/6
f 615/2/6 616/2/6 619/2/6
f 619/2/6 616/2/6 620/2/6
f 621/3/6 622/3/6 625/3/6
f 625/3/6 622/3/6 626/3/6
f 623/3/6 624/3/6 627/3/6
f 627/3/6 624/3/6 628/3/6
f 629/2/6 630/2/6 633/2/6
f 633/2/6 630/2/6 634/2/6
f 631/2/6 632/2/6 635/2/6
f 635/2/6 632/2/6 636/2/6
f 637/2/6 638/2/6 641/2/6
f 641/2/6 638/2/6 642/2/6
f 639/2/6 640/2/6 643/2/6
f 643/2/6 640/2/6 644/2/6
f 645/3/6 646/3/6 649/3/6
f 649/3/6 646/3/6 650/3/6
f 647/3/6 648/3/6 651/3/6
f 651/3/6 648/3/6 652/3/6
f 650/3/6 651/3/6 653/3/6
f 653/3/6 651/3/6 654/3/6
f 655/2/6 656/2/6 659/2/6
f 659/2/6 656/2/6 660/2/6
f 657/2/6 658/2/6 661/2/6
f 661/2/6 658/2/6 662/2/6
f 663/5/6 664/5/6 668/5/6
f 668/5/6 664/5/6 669/5/6
f 665/5/6 666/5/6 672/5/6
f 672/5/6 666/5/6 673/5/6
f 667/2/6 668/2/6 675/2/6
f 675/2/6 668/2/6 676/2/6
f 670/3/6 671/3/6 677/3/6
f 677/3/6 671/3/6 678/3/6
f 673/2/6 674/2/6 679/2/6
f 679/2/6 674/2/6 680/2/6
f 681/7/6 682/7/6 685/7/6
f 685/7/6 682/7/6 686/7/6
f 683/5/6 684/5/6 689/5/6
f 689/5/6 684/5/6 690/5/6
f 686/3/6 687/3/6 691/3/6
f 685/3/6 686/3/6 691/3/6
f 691/3/6 687/3/6 692/3/6
f 692/3/6 687/3/6 693/3/6
f 689/3/6 690/3/6 694/3/6
f 688/3/6 689/3/6 694/3/6
f 694/3/6 690/3/6 695/3/6
f 695/3/6 690/3/6 696/3/6
f 692/3/6 693/3/6 697/3/6
f 694/3/6 695/3/6 697/3/6
f 693/3/6 694/3/6 697/3/6
f 697/3/6 695/3/6 698/3/6
f 699/2/6 700/2/6 704/2/6
f 701/2/6 702/2/6 705/2/6
f 703/5/6 704/5/6 707/5/6
f 704/2/6 700/2/6 708/2/6
f 707/5/6 704/5/6 708/5/6
f 705/5/6 706/5/6 709/5/6
f 701/2/6 705/2/6 709/2/6
f 709/5/6 706/5/6 710/5/6
f 708/2/6 700/2/6 711/2/6
f 711/2/6 700/2/6 712/2/6
f 701/2/6 709/2/6 713/2/6
f 713/2/6 709/2/6 714/2/6
f 716/5/6 717/5/6 719/5/6
f 715/2/6 716/2/6 719/2/6
f 717/2/6 718/2/6 720/2/6
f 719/5/6 717/5/6 720/5/6
f 715/2/6 719/2/6 721/2/6
f 719/2/6 720/2/6 721/2/6
f 721/2/6 720/2/6 722/2/6
f 720/2/6 718/2/6 723/2/6
f 722/2/6 720/2/6 723/2/6
f 723/2/6 718/2/6 724/2/6
f 722/2/6 723/2/6 725/2/6
f 725/2/6 723/2/6 726/2/6
f 726/2/6 723/2/6 727/2/6
f 727/2/6 723/2/6 728/2/6
f 726/2/6 727/2/6 729/2/6
f 729/2/6 727/2/6 730/2/6
f 731/2/6 732/2/6 734/2/6
f 734/2/6 732/2/6 735/2/6
f 733/2/6 734/2/6 737/2/6
f 737/2/6 734/2/6 738/2/6
f 735/2/6 736/2/6 739/2/6
f 739/2/6 736/2/6 740/2/6
