# MagicaVoxel @ Ephtracy

# group
o 

# material
mtllib oveja-1-2.mtl
usemtl palette

# normals
vn -1 0 0
vn 1 0 0
vn 0 0 1
vn 0 0 -1
vn 0 -1 0
vn 0 1 0

# texcoords
vt 0.982422 0.5
vt 0.986328 0.5
vt 0.990234 0.5

# verts
v 0.3 0.1 0.8
v 0.3 0.1 0.5
v 0.3 0.2 0.8
v 0.3 0.2 0.5
v 0.3 0.6 0.8
v 0.3 0.6 0.5
v 0.6 0.1 0.8
v 0.6 0.1 0.5
v 0.6 0.2 0.8
v 0.6 0.2 0.5
v 0.6 0.6 0.8
v 0.6 0.6 0.5
v 0.3 0.1 0.8
v 0.3 0.2 0.8
v 0.3 0.6 0.8
v 0.6 0.1 0.8
v 0.6 0.2 0.8
v 0.6 0.6 0.8
v 0.3 0.1 0.5
v 0.3 0.2 0.5
v 0.3 0.6 0.5
v 0.4 0.1 0.5
v 0.4 0.2 0.5
v 0.5 0.1 0.5
v 0.5 0.2 0.5
v 0.6 0.1 0.5
v 0.6 0.2 0.5
v 0.6 0.6 0.5
v 0.3 0.1 0.8
v 0.6 0.1 0.8
v 0.4 0.1 0.7
v 0.5 0.1 0.7
v 0.3 0.1 0.5
v 0.4 0.1 0.5
v 0.5 0.1 0.5
v 0.6 0.1 0.5
v 0.3 0.6 0.8
v 0.6 0.6 0.8
v 0.3 0.6 0.5
v 0.6 0.6 0.5

# faces
f 3/3/1 2/3/1 1/3/1
f 4/3/1 2/3/1 3/3/1
f 5/1/1 4/1/1 3/1/1
f 6/1/1 4/1/1 5/1/1
f 7/3/2 8/3/2 9/3/2
f 9/3/2 8/3/2 10/3/2
f 9/1/2 10/1/2 11/1/2
f 11/1/2 10/1/2 12/1/2
f 16/3/3 14/3/3 13/3/3
f 17/1/3 15/1/3 14/1/3
f 17/3/3 14/3/3 16/3/3
f 18/1/3 15/1/3 17/1/3
f 19/3/4 20/3/4 22/3/4
f 20/1/4 21/1/4 23/1/4
f 22/3/4 20/3/4 23/3/4
f 22/2/4 23/2/4 24/2/4
f 23/1/4 21/1/4 25/1/4
f 24/2/4 23/2/4 25/2/4
f 24/3/4 25/3/4 26/3/4
f 25/1/4 21/1/4 27/1/4
f 26/3/4 25/3/4 27/3/4
f 27/1/4 21/1/4 28/1/4
f 31/3/5 30/3/5 29/3/5
f 32/3/5 30/3/5 31/3/5
f 33/3/5 31/3/5 29/3/5
f 34/2/5 32/2/5 31/2/5
f 34/3/5 31/3/5 33/3/5
f 35/3/5 30/3/5 32/3/5
f 35/2/5 32/2/5 34/2/5
f 36/3/5 30/3/5 35/3/5
f 37/1/6 38/1/6 39/1/6
f 39/1/6 38/1/6 40/1/6
