# MagicaVoxel @ Ephtracy

# group
o 

# material
mtllib oveja-1-1.mtl
usemtl palette

# normals
vn -1 0 0
vn 1 0 0
vn 0 0 1
vn 0 0 -1
vn 0 -1 0
vn 0 1 0

# texcoords
vt 0.787109 0.5
vt 0.958984 0.5
vt 0.962891 0.5
vt 0.966797 0.5
vt 0.974609 0.5
vt 0.978516 0.5
vt 0.982422 0.5

# verts
v -0.3 1.2 -0.9
v -0.3 1.2 -1
v -0.3 1.3 -1.1
v -0.3 1.3 -1.2
v -0.3 1.6 -0.9
v -0.3 1.6 -1
v -0.3 1.8 -1.1
v -0.3 1.8 -1.2
v -0.2 1.1 -0.9
v -0.2 1.1 -1
v -0.2 1.2 -0.9
v -0.2 1.2 -1
v -0.2 1.2 -1.1
v -0.2 1.2 -1.2
v -0.2 1.3 -1.1
v -0.2 1.3 -1.2
v -0.2 1.6 -0.9
v -0.2 1.6 -1
v -0.2 1.7 -0.9
v -0.2 1.7 -1
v -0.2 1.8 -1.1
v -0.2 1.8 -1.2
v -0.2 1.9 -1.1
v -0.2 1.9 -1.2
v -0.1 1 -0.9
v -0.1 1 -1
v -0.1 1.1 -0.9
v -0.1 1.1 -1
v -0.1 1.1 -1.1
v -0.1 1.1 -1.2
v -0.1 1.2 -1
v -0.1 1.2 -1.1
v -0.1 1.2 -1.2
v -0.1 1.3 -1.2
v -0.1 1.3 -1.8
v -0.1 1.4 -1.6
v -0.1 1.4 -1.7
v -0.1 1.4 -1.8
v -0.1 1.5 -1.6
v -0.1 1.5 -1.7
v -0.1 1.5 -1.8
v -0.1 1.6 -1.3
v -0.1 1.6 -1.4
v -0.1 1.6 -1.5
v -0.1 1.7 -0.9
v -0.1 1.7 -1
v -0.1 1.7 -1.1
v -0.1 1.7 -1.3
v -0.1 1.7 -1.4
v -0.1 1.7 -1.7
v -0.1 1.7 -1.8
v -0.1 1.8 -0.9
v -0.1 1.8 -1
v -0.1 1.8 -1.2
v -0.1 1.8 -1.3
v -0.1 1.8 -1.5
v -0.1 1.8 -1.6
v -0.1 1.8 -1.7
v -0.1 1.9 -1
v -0.1 1.9 -1.1
v -0.1 1.9 -1.2
v -0.1 1.9 -1.4
v -0.1 1.9 -1.5
v -0.1 1.9 -1.6
v -0.1 2 -0.9
v -0.1 2 -1
v -0.1 2 -1.2
v -0.1 2 -1.4
v -0.1 2.1 -1.1
v -0.1 2.1 -1.2
v 0 1 -1.1
v 0 1 -1.2
v 0 1.1 -1.1
v 0 1.1 -1.2
v 0 1.7 -1.7
v 0 1.7 -1.8
v 0 1.8 -1.6
v 0 1.8 -1.7
v 0 1.8 -1.8
v 0 1.9 -1
v 0 1.9 -1.1
v 0 1.9 -1.4
v 0 1.9 -1.5
v 0 1.9 -1.6
v 0 1.9 -1.7
v 0 2 -1
v 0 2 -1.1
v 0 2 -1.4
v 0 2 -1.5
v 0.1 1.9 -1.5
v 0.1 1.9 -1.6
v 0.1 2 -0.9
v 0.1 2 -1.1
v 0.1 2 -1.5
v 0.1 2 -1.6
v 0.1 2.1 -0.9
v 0.1 2.1 -1.1
v 0.2 1 -1.1
v 0.2 1 -1.2
v 0.2 1.2 -1.1
v 0.2 1.3 -1.1
v 0.2 1.3 -1.2
v 0.2 1.9 -1.1
v 0.2 1.9 -1.2
v 0.2 2 -1.2
v 0.2 2.1 -1.1
v 0.2 2.1 -1.2
v 0.1 1 -1.1
v 0.1 1 -1.2
v 0.1 1.2 -1.1
v 0.1 1.3 -1.1
v 0.1 1.3 -1.2
v 0.1 1.9 -1.1
v 0.1 1.9 -1.2
v 0.1 2 -1.2
v 0.1 2.1 -1.1
v 0.1 2.1 -1.2
v 0.2 1.9 -1.5
v 0.2 1.9 -1.6
v 0.2 2 -0.9
v 0.2 2 -1.1
v 0.2 2 -1.5
v 0.2 2 -1.6
v 0.2 2.1 -0.9
v 0.2 2.1 -1.1
v 0.3 1 -1.1
v 0.3 1 -1.2
v 0.3 1.1 -1.1
v 0.3 1.1 -1.2
v 0.3 1.7 -1.7
v 0.3 1.7 -1.8
v 0.3 1.8 -1.6
v 0.3 1.8 -1.7
v 0.3 1.8 -1.8
v 0.3 1.9 -1
v 0.3 1.9 -1.1
v 0.3 1.9 -1.4
v 0.3 1.9 -1.5
v 0.3 1.9 -1.6
v 0.3 1.9 -1.7
v 0.3 2 -1
v 0.3 2 -1.1
v 0.3 2 -1.4
v 0.3 2 -1.5
v 0.4 1 -0.9
v 0.4 1 -1
v 0.4 1.1 -0.9
v 0.4 1.1 -1
v 0.4 1.1 -1.1
v 0.4 1.1 -1.2
v 0.4 1.2 -1
v 0.4 1.2 -1.1
v 0.4 1.2 -1.2
v 0.4 1.3 -1.2
v 0.4 1.3 -1.8
v 0.4 1.4 -1.6
v 0.4 1.4 -1.7
v 0.4 1.4 -1.8
v 0.4 1.5 -1.6
v 0.4 1.5 -1.7
v 0.4 1.5 -1.8
v 0.4 1.6 -1.3
v 0.4 1.6 -1.4
v 0.4 1.6 -1.5
v 0.4 1.7 -0.9
v 0.4 1.7 -1
v 0.4 1.7 -1.1
v 0.4 1.7 -1.3
v 0.4 1.7 -1.4
v 0.4 1.7 -1.7
v 0.4 1.7 -1.8
v 0.4 1.8 -0.9
v 0.4 1.8 -1
v 0.4 1.8 -1.2
v 0.4 1.8 -1.3
v 0.4 1.8 -1.5
v 0.4 1.8 -1.6
v 0.4 1.8 -1.7
v 0.4 1.9 -1
v 0.4 1.9 -1.1
v 0.4 1.9 -1.2
v 0.4 1.9 -1.4
v 0.4 1.9 -1.5
v 0.4 1.9 -1.6
v 0.4 2 -0.9
v 0.4 2 -1
v 0.4 2 -1.2
v 0.4 2 -1.4
v 0.4 2.1 -1.1
v 0.4 2.1 -1.2
v 0.5 1.1 -0.9
v 0.5 1.1 -1
v 0.5 1.2 -0.9
v 0.5 1.2 -1
v 0.5 1.2 -1.1
v 0.5 1.2 -1.2
v 0.5 1.3 -1.1
v 0.5 1.3 -1.2
v 0.5 1.6 -0.9
v 0.5 1.6 -1
v 0.5 1.7 -0.9
v 0.5 1.7 -1
v 0.5 1.8 -1.1
v 0.5 1.8 -1.2
v 0.5 1.9 -1.1
v 0.5 1.9 -1.2
v 0.6 1.2 -0.9
v 0.6 1.2 -1
v 0.6 1.3 -1.1
v 0.6 1.3 -1.2
v 0.6 1.6 -0.9
v 0.6 1.6 -1
v 0.6 1.8 -1.1
v 0.6 1.8 -1.2
v -0.3 1.2 -0.9
v -0.3 1.6 -0.9
v -0.2 1.1 -0.9
v -0.2 1.2 -0.9
v -0.2 1.6 -0.9
v -0.2 1.7 -0.9
v -0.1 1 -0.9
v -0.1 1.1 -0.9
v -0.1 1.7 -0.9
v -0.1 1.8 -0.9
v -0.1 2 -0.9
v 0 1.8 -0.9
v 0 2 -0.9
v 0.1 1.8 -0.9
v 0.1 1.9 -0.9
v 0.1 2 -0.9
v 0.1 2.1 -0.9
v 0.2 2 -0.9
v 0.2 2.1 -0.9
v 0.3 1.8 -0.9
v 0.3 1.9 -0.9
v 0.3 2 -0.9
v 0.4 1 -0.9
v 0.4 1.1 -0.9
v 0.4 1.7 -0.9
v 0.4 1.8 -0.9
v 0.4 2 -0.9
v 0.5 1.1 -0.9
v 0.5 1.2 -0.9
v 0.5 1.6 -0.9
v 0.5 1.7 -0.9
v 0.6 1.2 -0.9
v 0.6 1.6 -0.9
v -0.3 1.3 -1.1
v -0.3 1.8 -1.1
v -0.2 1.2 -1.1
v -0.2 1.3 -1.1
v -0.2 1.8 -1.1
v -0.2 1.9 -1.1
v -0.1 1.1 -1.1
v -0.1 1.2 -1.1
v -0.1 1.7 -1.1
v -0.1 1.9 -1.1
v -0.1 2.1 -1.1
v 0 1 -1.1
v 0 1.1 -1.1
v 0 1.9 -1.1
v 0 2 -1.1
v 0.1 1 -1.1
v 0.1 1.2 -1.1
v 0.1 2 -1.1
v 0.1 2.1 -1.1
v 0.2 1 -1.1
v 0.2 1.2 -1.1
v 0.2 2 -1.1
v 0.2 2.1 -1.1
v 0.3 1 -1.1
v 0.3 1.1 -1.1
v 0.3 1.9 -1.1
v 0.3 2 -1.1
v 0.4 1.1 -1.1
v 0.4 1.2 -1.1
v 0.4 1.7 -1.1
v 0.4 1.9 -1.1
v 0.4 2.1 -1.1
v 0.5 1.2 -1.1
v 0.5 1.3 -1.1
v 0.5 1.8 -1.1
v 0.5 1.9 -1.1
v 0.6 1.3 -1.1
v 0.6 1.8 -1.1
v 0.1 1.9 -1.2
v 0.1 2 -1.2
v 0.2 1.9 -1.2
v 0.2 2 -1.2
v -0.3 1.2 -1
v -0.3 1.6 -1
v -0.2 1.1 -1
v -0.2 1.2 -1
v -0.2 1.6 -1
v -0.2 1.7 -1
v -0.1 1 -1
v -0.1 1.1 -1
v -0.1 1.2 -1
v -0.1 1.7 -1
v -0.1 1.9 -1
v -0.1 2 -1
v 0 1.9 -1
v 0 2 -1
v 0.3 1.9 -1
v 0.3 2 -1
v 0.4 1 -1
v 0.4 1.1 -1
v 0.4 1.2 -1
v 0.4 1.7 -1
v 0.4 1.9 -1
v 0.4 2 -1
v 0.5 1.1 -1
v 0.5 1.2 -1
v 0.5 1.6 -1
v 0.5 1.7 -1
v 0.6 1.2 -1
v 0.6 1.6 -1
v 0.1 1.2 -1.1
v 0.1 1.3 -1.1
v 0.1 1.9 -1.1
v 0.1 2.1 -1.1
v 0.2 1.2 -1.1
v 0.2 1.3 -1.1
v 0.2 1.9 -1.1
v 0.2 2.1 -1.1
v -0.3 1.3 -1.2
v -0.3 1.8 -1.2
v -0.2 1.2 -1.2
v -0.2 1.3 -1.2
v -0.2 1.8 -1.2
v -0.2 1.9 -1.2
v -0.1 1.1 -1.2
v -0.1 1.2 -1.2
v -0.1 1.3 -1.2
v -0.1 1.8 -1.2
v -0.1 1.9 -1.2
v -0.1 2 -1.2
v -0.1 2.1 -1.2
v 0 1 -1.2
v 0 1.1 -1.2
v 0 1.3 -1.2
v 0.1 1 -1.2
v 0.1 1.3 -1.2
v 0.1 2 -1.2
v 0.1 2.1 -1.2
v 0.2 1 -1.2
v 0.2 1.3 -1.2
v 0.2 2 -1.2
v 0.2 2.1 -1.2
v 0.3 1 -1.2
v 0.3 1.1 -1.2
v 0.3 1.3 -1.2
v 0.4 1.1 -1.2
v 0.4 1.2 -1.2
v 0.4 1.3 -1.2
v 0.4 1.8 -1.2
v 0.4 1.9 -1.2
v 0.4 2 -1.2
v 0.4 2.1 -1.2
v 0.5 1.2 -1.2
v 0.5 1.3 -1.2
v 0.5 1.8 -1.2
v 0.5 1.9 -1.2
v 0.6 1.3 -1.2
v 0.6 1.8 -1.2
v -0.1 1.9 -1.4
v -0.1 2 -1.4
v 0 1.9 -1.4
v 0 2 -1.4
v 0.3 1.9 -1.4
v 0.3 2 -1.4
v 0.4 1.9 -1.4
v 0.4 2 -1.4
v 0 1.9 -1.5
v 0 2 -1.5
v 0.1 1.9 -1.5
v 0.1 2 -1.5
v 0.2 1.9 -1.5
v 0.2 2 -1.5
v 0.3 1.9 -1.5
v 0.3 2 -1.5
v -0.1 1.8 -1.6
v -0.1 1.9 -1.6
v 0 1.8 -1.6
v 0 1.9 -1.6
v 0.1 1.9 -1.6
v 0.1 2 -1.6
v 0.2 1.9 -1.6
v 0.2 2 -1.6
v 0.3 1.8 -1.6
v 0.3 1.9 -1.6
v 0.4 1.8 -1.6
v 0.4 1.9 -1.6
v -0.1 1.4 -1.7
v -0.1 1.5 -1.7
v -0.1 1.7 -1.7
v -0.1 1.8 -1.7
v 0 1.7 -1.7
v 0 1.8 -1.7
v 0 1.9 -1.7
v 0.1 1.5 -1.7
v 0.2 1.5 -1.7
v 0.3 1.7 -1.7
v 0.3 1.8 -1.7
v 0.3 1.9 -1.7
v 0.4 1.4 -1.7
v 0.4 1.5 -1.7
v 0.4 1.7 -1.7
v 0.4 1.8 -1.7
v -0.1 1.3 -1.8
v -0.1 1.4 -1.8
v -0.1 1.5 -1.8
v -0.1 1.7 -1.8
v 0 1.6 -1.8
v 0 1.7 -1.8
v 0 1.8 -1.8
v 0.1 1.5 -1.8
v 0.1 1.6 -1.8
v 0.1 1.7 -1.8
v 0.2 1.5 -1.8
v 0.2 1.6 -1.8
v 0.2 1.7 -1.8
v 0.3 1.6 -1.8
v 0.3 1.7 -1.8
v 0.3 1.8 -1.8
v 0.4 1.3 -1.8
v 0.4 1.4 -1.8
v 0.4 1.5 -1.8
v 0.4 1.7 -1.8
v -0.1 1 -0.9
v 0.4 1 -0.9
v -0.1 1 -1
v 0.4 1 -1
v 0 1 -1.1
v 0.1 1 -1.1
v 0.2 1 -1.1
v 0.3 1 -1.1
v 0 1 -1.2
v 0.1 1 -1.2
v 0.2 1 -1.2
v 0.3 1 -1.2
v -0.2 1.1 -0.9
v -0.1 1.1 -0.9
v 0.4 1.1 -0.9
v 0.5 1.1 -0.9
v -0.2 1.1 -1
v -0.1 1.1 -1
v 0.4 1.1 -1
v 0.5 1.1 -1
v -0.1 1.1 -1.1
v 0 1.1 -1.1
v 0.3 1.1 -1.1
v 0.4 1.1 -1.1
v -0.1 1.1 -1.2
v 0 1.1 -1.2
v 0.3 1.1 -1.2
v 0.4 1.1 -1.2
v -0.3 1.2 -0.9
v -0.2 1.2 -0.9
v 0.5 1.2 -0.9
v 0.6 1.2 -0.9
v -0.3 1.2 -1
v -0.2 1.2 -1
v -0.1 1.2 -1
v 0.4 1.2 -1
v 0.5 1.2 -1
v 0.6 1.2 -1
v -0.2 1.2 -1.1
v -0.1 1.2 -1.1
v 0.1 1.2 -1.1
v 0.2 1.2 -1.1
v 0.4 1.2 -1.1
v 0.5 1.2 -1.1
v -0.2 1.2 -1.2
v -0.1 1.2 -1.2
v 0.4 1.2 -1.2
v 0.5 1.2 -1.2
v -0.3 1.3 -1.1
v -0.2 1.3 -1.1
v 0.1 1.3 -1.1
v 0.2 1.3 -1.1
v 0.5 1.3 -1.1
v 0.6 1.3 -1.1
v -0.3 1.3 -1.2
v -0.2 1.3 -1.2
v -0.1 1.3 -1.2
v 0 1.3 -1.2
v 0.1 1.3 -1.2
v 0.2 1.3 -1.2
v 0.3 1.3 -1.2
v 0.4 1.3 -1.2
v 0.5 1.3 -1.2
v 0.6 1.3 -1.2
v 0 1.3 -1.5
v 0.3 1.3 -1.5
v -0.1 1.3 -1.8
v 0.4 1.3 -1.8
v -0.1 1.5 -1.7
v 0.1 1.5 -1.7
v 0.2 1.5 -1.7
v 0.4 1.5 -1.7
v -0.1 1.5 -1.8
v 0.1 1.5 -1.8
v 0.2 1.5 -1.8
v 0.4 1.5 -1.8
v -0.1 1.4 -1.7
v 0.4 1.4 -1.7
v -0.1 1.4 -1.8
v 0.4 1.4 -1.8
v -0.3 1.6 -0.9
v -0.2 1.6 -0.9
v 0.5 1.6 -0.9
v 0.6 1.6 -0.9
v -0.3 1.6 -1
v -0.2 1.6 -1
v 0.5 1.6 -1
v 0.6 1.6 -1
v -0.2 1.7 -0.9
v -0.1 1.7 -0.9
v 0.4 1.7 -0.9
v 0.5 1.7 -0.9
v -0.2 1.7 -1
v -0.1 1.7 -1
v 0.4 1.7 -1
v 0.5 1.7 -1
v -0.1 1.7 -1.7
v 0 1.7 -1.7
v 0.3 1.7 -1.7
v 0.4 1.7 -1.7
v -0.1 1.7 -1.8
v 0 1.7 -1.8
v 0.3 1.7 -1.8
v 0.4 1.7 -1.8
v -0.3 1.8 -1.1
v -0.2 1.8 -1.1
v 0.5 1.8 -1.1
v 0.6 1.8 -1.1
v -0.3 1.8 -1.2
v -0.2 1.8 -1.2
v 0.5 1.8 -1.2
v 0.6 1.8 -1.2
v -0.1 1.8 -1.6
v 0 1.8 -1.6
v 0.3 1.8 -1.6
v 0.4 1.8 -1.6
v -0.1 1.8 -1.7
v 0 1.8 -1.7
v 0.3 1.8 -1.7
v 0.4 1.8 -1.7
v 0 1.8 -1.8
v 0.3 1.8 -1.8
v -0.1 1.9 -1
v 0 1.9 -1
v 0.3 1.9 -1
v 0.4 1.9 -1
v -0.2 1.9 -1.1
v -0.1 1.9 -1.1
v 0 1.9 -1.1
v 0.1 1.9 -1.1
v 0.2 1.9 -1.1
v 0.3 1.9 -1.1
v 0.4 1.9 -1.1
v 0.5 1.9 -1.1
v -0.2 1.9 -1.2
v -0.1 1.9 -1.2
v 0.1 1.9 -1.2
v 0.2 1.9 -1.2
v 0.4 1.9 -1.2
v 0.5 1.9 -1.2
v -0.1 1.9 -1.4
v 0 1.9 -1.4
v 0.3 1.9 -1.4
v 0.4 1.9 -1.4
v -0.1 1.9 -1.5
v 0 1.9 -1.5
v 0.1 1.9 -1.5
v 0.2 1.9 -1.5
v 0.3 1.9 -1.5
v 0.4 1.9 -1.5
v -0.1 1.9 -1.6
v 0 1.9 -1.6
v 0.1 1.9 -1.6
v 0.2 1.9 -1.6
v 0.3 1.9 -1.6
v 0.4 1.9 -1.6
v 0 1.9 -1.7
v 0.3 1.9 -1.7
v -0.1 2 -0.9
v 0 2 -0.9
v 0.1 2 -0.9
v 0.2 2 -0.9
v 0.3 2 -0.9
v 0.4 2 -0.9
v -0.1 2 -1
v 0 2 -1
v 0.3 2 -1
v 0.4 2 -1
v 0 2 -1.1
v 0.1 2 -1.1
v 0.2 2 -1.1
v 0.3 2 -1.1
v -0.1 2 -1.2
v 0.1 2 -1.2
v 0.2 2 -1.2
v 0.4 2 -1.2
v 0.1 2 -1.3
v 0.2 2 -1.3
v -0.1 2 -1.4
v 0 2 -1.4
v 0.3 2 -1.4
v 0.4 2 -1.4
v 0 2 -1.5
v 0.1 2 -1.5
v 0.2 2 -1.5
v 0.3 2 -1.5
v 0.1 2 -1.6
v 0.2 2 -1.6
v 0.1 2.1 -0.9
v 0.2 2.1 -0.9
v -0.1 2.1 -1.1
v 0.1 2.1 -1.1
v 0.2 2.1 -1.1
v 0.4 2.1 -1.1
v -0.1 2.1 -1.2
v 0.1 2.1 -1.2
v 0.2 2.1 -1.2
v 0.4 2.1 -1.2

# faces
f 5/3/1 2/3/1 1/3/1
f 6/3/1 2/3/1 5/3/1
f 7/3/1 4/3/1 3/3/1
f 8/3/1 4/3/1 7/3/1
f 11/3/1 10/3/1 9/3/1
f 12/3/1 10/3/1 11/3/1
f 15/3/1 14/3/1 13/3/1
f 16/3/1 14/3/1 15/3/1
f 19/3/1 18/3/1 17/3/1
f 20/3/1 18/3/1 19/3/1
f 23/3/1 22/3/1 21/3/1
f 24/3/1 22/3/1 23/3/1
f 27/3/1 26/3/1 25/3/1
f 28/3/1 26/3/1 27/3/1
f 32/3/1 30/3/1 29/3/1
f 33/3/1 30/3/1 32/3/1
f 36/5/1 35/5/1 34/5/1
f 37/5/1 35/5/1 36/5/1
f 38/5/1 35/5/1 37/5/1
f 39/5/1 36/5/1 34/5/1
f 39/7/1 37/7/1 36/7/1
f 40/7/1 37/7/1 39/7/1
f 42/5/1 39/5/1 34/5/1
f 42/5/1 41/5/1 40/5/1
f 42/5/1 40/5/1 39/5/1
f 43/5/1 41/5/1 42/5/1
f 44/5/1 41/5/1 43/5/1
f 46/3/1 32/3/1 31/3/1
f 47/3/1 32/3/1 46/3/1
f 48/5/1 42/5/1 34/5/1
f 48/1/1 43/1/1 42/1/1
f 49/2/1 44/2/1 43/2/1
f 49/1/1 43/1/1 48/1/1
f 50/5/1 41/5/1 44/5/1
f 51/5/1 41/5/1 50/5/1
f 52/3/1 46/3/1 45/3/1
f 53/6/1 47/6/1 46/6/1
f 53/3/1 46/3/1 52/3/1
f 54/5/1 48/5/1 34/5/1
f 55/2/1 49/2/1 48/2/1
f 55/5/1 48/5/1 54/5/1
f 56/2/1 44/2/1 49/2/1
f 56/2/1 49/2/1 55/2/1
f 56/5/1 50/5/1 44/5/1
f 57/5/1 50/5/1 56/5/1
f 58/5/1 50/5/1 57/5/1
f 59/6/1 47/6/1 53/6/1
f 59/6/1 53/6/1 52/6/1
f 60/6/1 47/6/1 59/6/1
f 61/7/1 55/7/1 54/7/1
f 61/7/1 56/7/1 55/7/1
f 62/7/1 56/7/1 61/7/1
f 63/5/1 57/5/1 56/5/1
f 63/7/1 56/7/1 62/7/1
f 64/5/1 57/5/1 63/5/1
f 65/6/1 59/6/1 52/6/1
f 66/6/1 59/6/1 65/6/1
f 67/3/1 62/3/1 61/3/1
f 67/3/1 61/3/1 60/3/1
f 68/3/1 62/3/1 67/3/1
f 69/3/1 67/3/1 60/3/1
f 70/3/1 67/3/1 69/3/1
f 73/3/1 72/3/1 71/3/1
f 74/3/1 72/3/1 73/3/1
f 78/5/1 76/5/1 75/5/1
f 79/5/1 76/5/1 78/5/1
f 84/5/1 78/5/1 77/5/1
f 85/5/1 78/5/1 84/5/1
f 86/3/1 81/3/1 80/3/1
f 87/3/1 81/3/1 86/3/1
f 88/3/1 83/3/1 82/3/1
f 89/3/1 83/3/1 88/3/1
f 94/3/1 91/3/1 90/3/1
f 95/3/1 91/3/1 94/3/1
f 96/3/1 93/3/1 92/3/1
f 97/3/1 93/3/1 96/3/1
f 100/3/1 99/3/1 98/3/1
f 101/3/1 99/3/1 100/3/1
f 102/3/1 99/3/1 101/3/1
f 105/3/1 104/3/1 103/3/1
f 106/3/1 105/3/1 103/3/1
f 107/3/1 105/3/1 106/3/1
f 108/3/2 109/3/2 110/3/2
f 110/3/2 109/3/2 111/3/2
f 111/3/2 109/3/2 112/3/2
f 113/3/2 114/3/2 115/3/2
f 113/3/2 115/3/2 116/3/2
f 116/3/2 115/3/2 117/3/2
f 118/3/2 119/3/2 122/3/2
f 122/3/2 119/3/2 123/3/2
f 120/3/2 121/3/2 124/3/2
f 124/3/2 121/3/2 125/3/2
f 126/3/2 127/3/2 128/3/2
f 128/3/2 127/3/2 129/3/2
f 130/5/2 131/5/2 133/5/2
f 133/5/2 131/5/2 134/5/2
f 132/5/2 133/5/2 139/5/2
f 139/5/2 133/5/2 140/5/2
f 135/3/2 136/3/2 141/3/2
f 141/3/2 136/3/2 142/3/2
f 137/3/2 138/3/2 143/3/2
f 143/3/2 138/3/2 144/3/2
f 145/3/2 146/3/2 147/3/2
f 147/3/2 146/3/2 148/3/2
f 149/3/2 150/3/2 152/3/2
f 152/3/2 150/3/2 153/3/2
f 154/5/2 155/5/2 156/5/2
f 156/5/2 155/5/2 157/5/2
f 157/5/2 155/5/2 158/5/2
f 154/5/2 156/5/2 159/5/2
f 156/7/2 157/7/2 159/7/2
f 159/7/2 157/7/2 160/7/2
f 154/5/2 159/5/2 162/5/2
f 160/5/2 161/5/2 162/5/2
f 159/5/2 160/5/2 162/5/2
f 162/5/2 161/5/2 163/5/2
f 163/5/2 161/5/2 164/5/2
f 151/3/2 152/3/2 166/3/2
f 166/3/2 152/3/2 167/3/2
f 154/5/2 162/5/2 168/5/2
f 162/1/2 163/1/2 168/1/2
f 163/2/2 164/2/2 169/2/2
f 168/1/2 163/1/2 169/1/2
f 164/5/2 161/5/2 170/5/2
f 170/5/2 161/5/2 171/5/2
f 165/3/2 166/3/2 172/3/2
f 166/6/2 167/6/2 173/6/2
f 172/3/2 166/3/2 173/3/2
f 154/5/2 168/5/2 174/5/2
f 168/2/2 169/2/2 175/2/2
f 174/5/2 168/5/2 175/5/2
f 169/2/2 164/2/2 176/2/2
f 175/2/2 169/2/2 176/2/2
f 164/5/2 170/5/2 176/5/2
f 176/5/2 170/5/2 177/5/2
f 177/5/2 170/5/2 178/5/2
f 173/6/2 167/6/2 179/6/2
f 172/6/2 173/6/2 179/6/2
f 179/6/2 167/6/2 180/6/2
f 174/7/2 175/7/2 181/7/2
f 175/7/2 176/7/2 181/7/2
f 181/7/2 176/7/2 182/7/2
f 176/5/2 177/5/2 183/5/2
f 182/7/2 176/7/2 183/7/2
f 183/5/2 177/5/2 184/5/2
f 172/6/2 179/6/2 185/6/2
f 185/6/2 179/6/2 186/6/2
f 181/3/2 182/3/2 187/3/2
f 180/3/2 181/3/2 187/3/2
f 187/3/2 182/3/2 188/3/2
f 180/3/2 187/3/2 189/3/2
f 189/3/2 187/3/2 190/3/2
f 191/3/2 192/3/2 193/3/2
f 193/3/2 192/3/2 194/3/2
f 195/3/2 196/3/2 197/3/2
f 197/3/2 196/3/2 198/3/2
f 199/3/2 200/3/2 201/3/2
f 201/3/2 200/3/2 202/3/2
f 203/3/2 204/3/2 205/3/2
f 205/3/2 204/3/2 206/3/2
f 207/3/2 208/3/2 211/3/2
f 211/3/2 208/3/2 212/3/2
f 209/3/2 210/3/2 213/3/2
f 213/3/2 210/3/2 214/3/2
f 218/3/3 216/3/3 215/3/3
f 219/3/3 216/3/3 218/3/3
f 222/3/3 218/3/3 217/3/3
f 222/3/3 220/3/3 219/3/3
f 222/3/3 219/3/3 218/3/3
f 223/3/3 220/3/3 222/3/3
f 226/3/3 222/3/3 221/3/3
f 226/6/3 225/6/3 224/6/3
f 226/3/3 224/3/3 223/3/3
f 226/3/3 223/3/3 222/3/3
f 227/6/3 225/6/3 226/6/3
f 228/3/3 226/3/3 221/3/3
f 228/3/3 227/3/3 226/3/3
f 229/3/3 227/3/3 228/3/3
f 230/3/3 227/3/3 229/3/3
f 232/3/3 230/3/3 229/3/3
f 232/3/3 231/3/3 230/3/3
f 233/3/3 231/3/3 232/3/3
f 234/5/3 229/5/3 228/5/3
f 234/3/3 228/3/3 221/3/3
f 235/3/3 232/3/3 229/3/3
f 235/5/3 229/5/3 234/5/3
f 236/3/3 232/3/3 235/3/3
f 237/3/3 234/3/3 221/3/3
f 238/3/3 234/3/3 237/3/3
f 239/3/3 234/3/3 238/3/3
f 240/6/3 235/6/3 234/6/3
f 240/3/3 234/3/3 239/3/3
f 240/6/3 236/6/3 235/6/3
f 241/6/3 236/6/3 240/6/3
f 242/3/3 239/3/3 238/3/3
f 243/3/3 239/3/3 242/3/3
f 244/3/3 239/3/3 243/3/3
f 245/3/3 239/3/3 244/3/3
f 246/3/3 244/3/3 243/3/3
f 247/3/3 244/3/3 246/3/3
f 251/3/3 249/3/3 248/3/3
f 252/3/3 249/3/3 251/3/3
f 255/3/3 251/3/3 250/3/3
f 255/3/3 253/3/3 252/3/3
f 255/3/3 252/3/3 251/3/3
f 256/3/3 253/3/3 255/3/3
f 257/3/3 253/3/3 256/3/3
f 260/3/3 255/3/3 254/3/3
f 261/3/3 258/3/3 257/3/3
f 262/3/3 258/3/3 261/3/3
f 263/3/3 260/3/3 259/3/3
f 264/3/3 255/3/3 260/3/3
f 264/3/3 260/3/3 263/3/3
f 265/3/3 258/3/3 262/3/3
f 266/3/3 258/3/3 265/3/3
f 271/3/3 268/3/3 267/3/3
f 272/3/3 268/3/3 271/3/3
f 274/3/3 270/3/3 269/3/3
f 275/3/3 268/3/3 272/3/3
f 276/3/3 268/3/3 275/3/3
f 278/3/3 274/3/3 273/3/3
f 279/3/3 270/3/3 274/3/3
f 279/3/3 274/3/3 278/3/3
f 280/3/3 277/3/3 276/3/3
f 280/3/3 278/3/3 277/3/3
f 281/3/3 278/3/3 280/3/3
f 282/3/3 278/3/3 281/3/3
f 283/3/3 278/3/3 282/3/3
f 284/3/3 282/3/3 281/3/3
f 285/3/3 282/3/3 284/3/3
f 288/6/3 287/6/3 286/6/3
f 289/6/3 287/6/3 288/6/3
f 290/3/4 291/3/4 293/3/4
f 293/3/4 291/3/4 294/3/4
f 292/3/4 293/3/4 297/3/4
f 294/3/4 295/3/4 297/3/4
f 293/3/4 294/3/4 297/3/4
f 297/3/4 295/3/4 298/3/4
f 298/3/4 295/3/4 299/3/4
f 300/6/4 301/6/4 302/6/4
f 302/6/4 301/6/4 303/6/4
f 296/3/4 297/3/4 306/3/4
f 297/3/4 298/3/4 306/3/4
f 306/3/4 298/3/4 307/3/4
f 307/3/4 298/3/4 308/3/4
f 304/6/4 305/6/4 310/6/4
f 310/6/4 305/6/4 311/6/4
f 308/3/4 309/3/4 312/3/4
f 307/3/4 308/3/4 312/3/4
f 312/3/4 309/3/4 313/3/4
f 313/3/4 309/3/4 314/3/4
f 314/3/4 309/3/4 315/3/4
f 313/3/4 314/3/4 316/3/4
f 316/3/4 314/3/4 317/3/4
f 318/3/4 319/3/4 322/3/4
f 322/3/4 319/3/4 323/3/4
f 320/3/4 321/3/4 324/3/4
f 324/3/4 321/3/4 325/3/4
f 326/3/4 327/3/4 329/3/4
f 329/3/4 327/3/4 330/3/4
f 328/3/4 329/3/4 333/3/4
f 330/3/4 331/3/4 333/3/4
f 329/3/4 330/3/4 333/3/4
f 333/3/4 331/3/4 334/3/4
f 334/3/4 331/3/4 335/3/4
f 335/3/4 331/3/4 336/3/4
f 332/3/4 333/3/4 340/3/4
f 333/3/4 334/3/4 340/3/4
f 340/3/4 334/3/4 341/3/4
f 339/3/4 340/3/4 342/3/4
f 340/3/4 341/3/4 342/3/4
f 342/3/4 341/3/4 343/3/4
f 337/3/4 338/3/4 344/3/4
f 344/3/4 338/3/4 345/3/4
f 346/3/4 347/3/4 350/3/4
f 350/3/4 347/3/4 351/3/4
f 351/3/4 347/3/4 352/3/4
f 351/3/4 352/3/4 353/3/4
f 353/3/4 352/3/4 354/3/4
f 354/3/4 352/3/4 355/3/4
f 348/3/4 349/3/4 358/3/4
f 358/3/4 349/3/4 359/3/4
f 356/3/4 357/3/4 360/3/4
f 354/3/4 355/3/4 360/3/4
f 355/3/4 356/3/4 360/3/4
f 360/3/4 357/3/4 361/3/4
f 361/3/4 357/3/4 362/3/4
f 362/3/4 357/3/4 363/3/4
f 361/3/4 362/3/4 364/3/4
f 364/3/4 362/3/4 365/3/4
f 366/3/4 367/3/4 368/3/4
f 368/3/4 367/3/4 369/3/4
f 370/3/4 371/3/4 372/3/4
f 372/3/4 371/3/4 373/3/4
f 374/3/4 375/3/4 376/3/4
f 376/3/4 375/3/4 377/3/4
f 378/3/4 379/3/4 380/3/4
f 380/3/4 379/3/4 381/3/4
f 382/5/4 383/5/4 384/5/4
f 384/5/4 383/5/4 385/5/4
f 386/3/4 387/3/4 388/3/4
f 388/3/4 387/3/4 389/3/4
f 390/5/4 391/5/4 392/5/4
f 392/5/4 391/5/4 393/5/4
f 396/5/4 397/5/4 398/5/4
f 398/5/4 397/5/4 399/5/4
f 394/7/4 395/7/4 401/7/4
f 394/7/4 401/7/4 402/7/4
f 399/5/4 400/5/4 404/5/4
f 404/5/4 400/5/4 405/5/4
f 394/7/4 402/7/4 406/7/4
f 406/7/4 402/7/4 407/7/4
f 403/5/4 404/5/4 408/5/4
f 408/5/4 404/5/4 409/5/4
f 412/5/4 413/5/4 414/5/4
f 414/5/4 413/5/4 415/5/4
f 412/5/4 414/5/4 417/5/4
f 414/7/4 415/7/4 418/7/4
f 417/5/4 414/5/4 418/5/4
f 415/5/4 416/5/4 419/5/4
f 418/7/4 415/7/4 419/7/4
f 417/7/4 418/7/4 420/7/4
f 418/5/4 419/5/4 421/5/4
f 420/7/4 418/7/4 421/7/4
f 419/5/4 416/5/4 422/5/4
f 421/5/4 419/5/4 422/5/4
f 420/5/4 421/5/4 423/5/4
f 421/7/4 422/7/4 423/7/4
f 422/5/4 416/5/4 424/5/4
f 423/7/4 422/7/4 424/7/4
f 424/5/4 416/5/4 425/5/4
f 410/5/4 411/5/4 426/5/4
f 426/5/4 411/5/4 427/5/4
f 420/5/4 423/5/4 428/5/4
f 423/5/4 424/5/4 428/5/4
f 428/5/4 424/5/4 429/5/4
f 432/3/5 431/3/5 430/3/5
f 433/3/5 431/3/5 432/3/5
f 438/3/5 435/3/5 434/3/5
f 439/3/5 435/3/5 438/3/5
f 440/3/5 437/3/5 436/3/5
f 441/3/5 437/3/5 440/3/5
f 446/3/5 443/3/5 442/3/5
f 447/3/5 443/3/5 446/3/5
f 448/3/5 445/3/5 444/3/5
f 449/3/5 445/3/5 448/3/5
f 454/3/5 451/3/5 450/3/5
f 455/3/5 451/3/5 454/3/5
f 456/3/5 453/3/5 452/3/5
f 457/3/5 453/3/5 456/3/5
f 462/3/5 459/3/5 458/3/5
f 463/3/5 459/3/5 462/3/5
f 466/3/5 461/3/5 460/3/5
f 467/3/5 461/3/5 466/3/5
f 469/3/5 465/3/5 464/3/5
f 470/3/5 465/3/5 469/3/5
f 471/3/5 465/3/5 470/3/5
f 472/3/5 465/3/5 471/3/5
f 474/3/5 469/3/5 468/3/5
f 475/3/5 469/3/5 474/3/5
f 476/3/5 473/3/5 472/3/5
f 477/3/5 473/3/5 476/3/5
f 484/3/5 479/3/5 478/3/5
f 485/3/5 479/3/5 484/3/5
f 488/6/5 481/6/5 480/6/5
f 489/6/5 481/6/5 488/6/5
f 492/3/5 483/3/5 482/3/5
f 493/3/5 483/3/5 492/3/5
f 494/5/5 487/5/5 486/5/5
f 494/6/5 488/6/5 487/6/5
f 494/6/5 490/6/5 489/6/5
f 494/6/5 489/6/5 488/6/5
f 495/5/5 491/5/5 490/5/5
f 495/6/5 490/6/5 494/6/5
f 496/5/5 494/5/5 486/5/5
f 496/5/5 495/5/5 494/5/5
f 497/5/5 491/5/5 495/5/5
f 497/5/5 495/5/5 496/5/5
f 502/5/5 499/5/5 498/5/5
f 503/7/5 500/7/5 499/7/5
f 503/5/5 499/5/5 502/5/5
f 504/5/5 501/5/5 500/5/5
f 504/7/5 500/7/5 503/7/5
f 505/5/5 501/5/5 504/5/5
f 506/5/6 507/5/6 508/5/6
f 508/5/6 507/5/6 509/5/6
f 510/3/6 511/3/6 514/3/6
f 514/3/6 511/3/6 515/3/6
f 512/3/6 513/3/6 516/3/6
f 516/3/6 513/3/6 517/3/6
f 518/3/6 519/3/6 522/3/6
f 522/3/6 519/3/6 523/3/6
f 520/3/6 521/3/6 524/3/6
f 524/3/6 521/3/6 525/3/6
f 526/5/6 527/5/6 530/5/6
f 530/5/6 527/5/6 531/5/6
f 528/5/6 529/5/6 532/5/6
f 532/5/6 529/5/6 533/5/6
f 534/3/6 535/3/6 538/3/6
f 538/3/6 535/3/6 539/3/6
f 536/3/6 537/3/6 540/3/6
f 540/3/6 537/3/6 541/3/6
f 542/5/6 543/5/6 546/5/6
f 546/5/6 543/5/6 547/5/6
f 544/5/6 545/5/6 548/5/6
f 548/5/6 545/5/6 549/5/6
f 547/5/6 548/5/6 550/5/6
f 550/5/6 548/5/6 551/5/6
f 552/6/6 553/6/6 557/6/6
f 557/6/6 553/6/6 558/6/6
f 554/6/6 555/6/6 561/6/6
f 561/6/6 555/6/6 562/6/6
f 556/3/6 557/3/6 564/3/6
f 564/3/6 557/3/6 565/3/6
f 559/5/6 560/5/6 566/5/6
f 566/5/6 560/5/6 567/5/6
f 562/3/6 563/3/6 568/3/6
f 568/3/6 563/3/6 569/3/6
f 570/7/6 571/7/6 574/7/6
f 574/7/6 571/7/6 575/7/6
f 572/7/6 573/7/6 578/7/6
f 578/7/6 573/7/6 579/7/6
f 575/5/6 576/5/6 580/5/6
f 574/5/6 575/5/6 580/5/6
f 580/5/6 576/5/6 581/5/6
f 581/5/6 576/5/6 582/5/6
f 578/5/6 579/5/6 583/5/6
f 577/5/6 578/5/6 583/5/6
f 583/5/6 579/5/6 584/5/6
f 584/5/6 579/5/6 585/5/6
f 581/5/6 582/5/6 586/5/6
f 583/5/6 584/5/6 586/5/6
f 582/5/6 583/5/6 586/5/6
f 586/5/6 584/5/6 587/5/6
f 588/6/6 589/6/6 594/6/6
f 589/3/6 590/3/6 595/3/6
f 594/6/6 589/6/6 595/6/6
f 592/6/6 593/6/6 596/6/6
f 591/3/6 592/3/6 596/3/6
f 596/6/6 593/6/6 597/6/6
f 595/3/6 590/3/6 598/3/6
f 598/3/6 590/3/6 599/3/6
f 591/3/6 596/3/6 600/3/6
f 600/3/6 596/3/6 601/3/6
f 603/6/6 604/6/6 606/6/6
f 602/3/6 603/3/6 606/3/6
f 604/3/6 605/3/6 607/3/6
f 606/6/6 604/6/6 607/6/6
f 602/3/6 606/3/6 608/3/6
f 606/3/6 607/3/6 608/3/6
f 608/3/6 607/3/6 609/3/6
f 607/3/6 605/3/6 610/3/6
f 609/3/6 607/3/6 610/3/6
f 610/3/6 605/3/6 611/3/6
f 609/3/6 610/3/6 612/3/6
f 612/3/6 610/3/6 613/3/6
f 613/3/6 610/3/6 614/3/6
f 614/3/6 610/3/6 615/3/6
f 613/3/6 614/3/6 616/3/6
f 616/3/6 614/3/6 617/3/6
f 618/3/6 619/3/6 621/3/6
f 621/3/6 619/3/6 622/3/6
f 620/3/6 621/3/6 624/3/6
f 624/3/6 621/3/6 625/3/6
f 622/3/6 623/3/6 626/3/6
f 626/3/6 623/3/6 627/3/6
