# MagicaVoxel @ Ephtracy

# group
o 

# material
mtllib Lobo2.mtl
usemtl palette

# normals
vn -1 0 0
vn 1 0 0
vn 0 0 1
vn 0 0 -1
vn 0 -1 0
vn 0 1 0

# texcoords
vt 0.0175781 0.5
vt 0.0332031 0.5
vt 0.0800781 0.5
vt 0.0996094 0.5
vt 0.369141 0.5
vt 0.958984 0.5
vt 0.994141 0.5

# verts
v -1.6 2.5 -0.1
v -1.6 2.5 -1.1
v -1.6 2.7 -0.1
v -1.6 2.7 -1.1
v -1.5 2.2 -0.1
v -1.5 2.2 -1.1
v -1.5 2.4 -0.8
v -1.5 2.4 -1
v -1.5 2.5 -0.1
v -1.5 2.5 -0.8
v -1.5 2.5 -1
v -1.5 2.5 -1.1
v -1.5 2.6 -5.96046e-08
v -1.5 2.6 -0.1
v -1.5 2.6 -1.1
v -1.5 2.6 -1.2
v -1.5 2.7 -5.96046e-08
v -1.5 2.7 -0.1
v -1.5 2.7 -1.1
v -1.5 2.7 -1.2
v -1.5 2.8 -0.1
v -1.5 2.8 -0.2
v -1.5 2.8 -0.5
v -1.5 2.8 -1.1
v -1.5 2.9 -0.5
v -1.5 2.9 -0.6
v -1.5 3 -0.2
v -1.5 3 -0.6
v -1.4 1.1 -0.2
v -1.4 1.1 -1
v -1.4 1.3 0.6
v -1.4 1.3 -0.1
v -1.4 1.6 0.6
v -1.4 1.6 -0.1
v -1.4 2.2 -0.2
v -1.4 2.2 -1
v -1.4 2.3 0.6
v -1.4 2.3 -5.96046e-08
v -1.4 2.6 0.6
v -1.4 2.6 -5.96046e-08
v -1.4 2.7 -1.1
v -1.4 2.7 -1.2
v -1.4 2.8 -0.5
v -1.4 2.8 -1
v -1.4 2.8 -1.1
v -1.4 2.9 -0.5
v -1.4 2.9 -0.6
v -1.4 2.9 -1
v -1.4 2.9 -1.2
v -1.4 3 -0.2
v -1.4 3 -0.6
v -1.4 3 -1
v -1.4 3.1 -0.2
v -1.4 3.1 -0.6
v -1.3 2.7 -1.2
v -1.3 2.7 -1.3
v -1.3 2.9 -1.2
v -1.3 2.9 -1.3
v -1.3 3.1 -0.2
v -1.3 3.1 -0.3
v -1.3 3.3 -0.2
v -1.3 3.3 -0.3
v -1.2 3 -0.7
v -1.2 3 -0.8
v -1.2 3.1 -0.3
v -1.2 3.1 -0.6
v -1.2 3.1 -0.7
v -1.2 3.1 -0.8
v -1.2 3.3 -0.2
v -1.2 3.3 -0.3
v -1.2 3.3 -0.6
v -1.2 3.4 -0.2
v -1.2 3.4 -0.3
v -1.1 0.5 -0.6
v -1.1 0.5 -0.9
v -1.1 1.1 -0.6
v -1.1 1.1 -0.9
v -1.1 2.7 -5.96046e-08
v -1.1 2.7 -0.1
v -1.1 2.8 -5.96046e-08
v -1.1 2.8 -0.1
v -1.1 3 -0.6
v -1.1 3 -0.7
v -1.1 3.1 -0.6
v -1.1 3.1 -0.7
v -1.1 3.2 -0.6
v -1.1 3.2 -0.7
v -1.1 3.3 -0.5
v -1.1 3.3 -0.6
v -1.1 3.3 -0.7
v -1.1 3.4 -0.5
v -1.1 3.4 -0.6
v -0.9 1.3 0.6
v -0.9 1.3 -0.1
v -0.9 1.6 0.6
v -0.9 1.6 -0.1
v -0.9 2.3 0.6
v -0.9 2.3 -5.96046e-08
v -0.9 2.6 0.6
v -0.9 2.6 -5.96046e-08
v -0.9 2.6 -0.1
v -0.9 2.7 -5.96046e-08
v -0.9 2.7 -0.1
v -0.9 2.7 -1.2
v -0.9 2.7 -1.3
v -0.9 2.9 -1.2
v -0.9 2.9 -1.3
v -0.9 3 -0.7
v -0.9 3 -0.8
v -0.9 3.1 -0.7
v -0.9 3.1 -0.8
v -1.1 1.3 0.6
v -1.1 1.3 -0.1
v -1.1 1.6 0.6
v -1.1 1.6 -0.1
v -1.1 2.3 0.6
v -1.1 2.3 -5.96046e-08
v -1.1 2.6 0.6
v -1.1 2.6 -5.96046e-08
v -1.1 2.6 -0.1
v -1.1 2.7 -5.96046e-08
v -1.1 2.7 -0.1
v -1.1 2.7 -1.2
v -1.1 2.7 -1.3
v -1.1 2.9 -1.2
v -1.1 2.9 -1.3
v -1.1 3 -0.7
v -1.1 3 -0.8
v -1.1 3.1 -0.7
v -1.1 3.1 -0.8
v -0.9 2.7 -5.96046e-08
v -0.9 2.7 -0.1
v -0.9 2.8 -5.96046e-08
v -0.9 2.8 -0.1
v -0.9 3 -0.6
v -0.9 3 -0.7
v -0.9 3.1 -0.6
v -0.9 3.1 -0.7
v -0.9 3.2 -0.6
v -0.9 3.2 -0.7
v -0.9 3.3 -0.5
v -0.9 3.3 -0.6
v -0.9 3.3 -0.7
v -0.9 3.4 -0.5
v -0.9 3.4 -0.6
v -0.8 0.5 -0.6
v -0.8 0.5 -0.9
v -0.8 1.1 -0.6
v -0.8 1.1 -0.9
v -0.8 3 -0.7
v -0.8 3 -0.8
v -0.8 3.1 -0.3
v -0.8 3.1 -0.6
v -0.8 3.1 -0.7
v -0.8 3.1 -0.8
v -0.8 3.3 -0.2
v -0.8 3.3 -0.3
v -0.8 3.3 -0.6
v -0.8 3.4 -0.2
v -0.8 3.4 -0.3
v -0.7 2.7 -1.2
v -0.7 2.7 -1.3
v -0.7 2.9 -1.2
v -0.7 2.9 -1.3
v -0.7 3.1 -0.2
v -0.7 3.1 -0.3
v -0.7 3.3 -0.2
v -0.7 3.3 -0.3
v -0.6 1.1 -0.2
v -0.6 1.1 -1
v -0.6 1.3 0.6
v -0.6 1.3 -0.1
v -0.6 1.6 0.6
v -0.6 1.6 -0.1
v -0.6 2.2 -0.2
v -0.6 2.2 -1
v -0.6 2.3 0.6
v -0.6 2.3 -5.96046e-08
v -0.6 2.6 0.6
v -0.6 2.6 -5.96046e-08
v -0.6 2.7 -1.1
v -0.6 2.7 -1.2
v -0.6 2.8 -0.5
v -0.6 2.8 -1
v -0.6 2.8 -1.1
v -0.6 2.9 -0.5
v -0.6 2.9 -0.6
v -0.6 2.9 -1
v -0.6 2.9 -1.2
v -0.6 3 -0.2
v -0.6 3 -0.6
v -0.6 3 -1
v -0.6 3.1 -0.2
v -0.6 3.1 -0.6
v -0.5 2.2 -0.1
v -0.5 2.2 -1.1
v -0.5 2.5 -0.1
v -0.5 2.5 -1.1
v -0.5 2.6 -5.96046e-08
v -0.5 2.6 -0.1
v -0.5 2.6 -1.1
v -0.5 2.6 -1.2
v -0.5 2.7 -5.96046e-08
v -0.5 2.7 -0.1
v -0.5 2.7 -1.1
v -0.5 2.7 -1.2
v -0.5 2.8 -0.1
v -0.5 2.8 -0.2
v -0.5 2.8 -0.5
v -0.5 2.8 -1.1
v -0.5 2.9 -0.5
v -0.5 2.9 -0.6
v -0.5 3 -0.2
v -0.5 3 -0.6
v -0.4 2.5 -0.1
v -0.4 2.5 -1.1
v -0.4 2.7 -0.1
v -0.4 2.7 -1.1
v -1.4 1.3 0.6
v -1.4 1.6 0.6
v -1.4 2.3 0.6
v -1.4 2.6 0.6
v -1.1 1.3 0.6
v -1.1 1.6 0.6
v -1.1 2.3 0.6
v -1.1 2.6 0.6
v -0.9 1.3 0.6
v -0.9 1.6 0.6
v -0.9 2.3 0.6
v -0.9 2.6 0.6
v -0.6 1.3 0.6
v -0.6 1.6 0.6
v -0.6 2.3 0.6
v -0.6 2.6 0.6
v -1.5 2.6 -5.96046e-08
v -1.5 2.7 -5.96046e-08
v -1.4 2.6 -5.96046e-08
v -1.1 2.6 -5.96046e-08
v -1.1 2.7 -5.96046e-08
v -1.1 2.8 -5.96046e-08
v -0.9 2.6 -5.96046e-08
v -0.9 2.7 -5.96046e-08
v -0.9 2.8 -5.96046e-08
v -0.6 2.6 -5.96046e-08
v -0.5 2.6 -5.96046e-08
v -0.5 2.7 -5.96046e-08
v -1.6 2.5 -0.1
v -1.6 2.7 -0.1
v -1.5 2.2 -0.1
v -1.5 2.5 -0.1
v -1.5 2.6 -0.1
v -1.5 2.7 -0.1
v -1.5 2.8 -0.1
v -1.1 2.6 -0.1
v -1.1 2.7 -0.1
v -1.1 2.8 -0.1
v -0.9 2.6 -0.1
v -0.9 2.7 -0.1
v -0.9 2.8 -0.1
v -0.5 2.2 -0.1
v -0.5 2.5 -0.1
v -0.5 2.6 -0.1
v -0.5 2.7 -0.1
v -0.5 2.8 -0.1
v -0.4 2.5 -0.1
v -0.4 2.7 -0.1
v -1.5 2.8 -0.2
v -1.5 3 -0.2
v -1.4 1.1 -0.2
v -1.4 2.2 -0.2
v -1.4 2.8 -0.2
v -1.4 3 -0.2
v -1.4 3.1 -0.2
v -1.3 3.1 -0.2
v -1.3 3.3 -0.2
v -1.2 3.1 -0.2
v -1.2 3.3 -0.2
v -1.2 3.4 -0.2
v -0.8 3.1 -0.2
v -0.8 3.3 -0.2
v -0.8 3.4 -0.2
v -0.7 3.1 -0.2
v -0.7 3.3 -0.2
v -0.6 1.1 -0.2
v -0.6 2.2 -0.2
v -0.6 2.8 -0.2
v -0.6 3 -0.2
v -0.6 3.1 -0.2
v -0.5 2.8 -0.2
v -0.5 3 -0.2
v -1.1 3.3 -0.5
v -1.1 3.4 -0.5
v -0.9 3.3 -0.5
v -0.9 3.4 -0.5
v -1.1 0.5 -0.6
v -1.1 1.1 -0.6
v -0.8 0.5 -0.6
v -0.8 1.1 -0.6
v -1.2 3 -0.7
v -1.2 3.1 -0.7
v -1.1 3 -0.7
v -1.1 3.1 -0.7
v -0.9 3 -0.7
v -0.9 3.1 -0.7
v -0.8 3 -0.7
v -0.8 3.1 -0.7
v -1.4 2.3 -5.96046e-08
v -1.4 2.6 -5.96046e-08
v -1.1 2.3 -5.96046e-08
v -1.1 2.6 -5.96046e-08
v -0.9 2.3 -5.96046e-08
v -0.9 2.6 -5.96046e-08
v -0.6 2.3 -5.96046e-08
v -0.6 2.6 -5.96046e-08
v -1.4 1.3 -0.1
v -1.4 1.6 -0.1
v -1.1 1.3 -0.1
v -1.1 1.6 -0.1
v -0.9 1.3 -0.1
v -0.9 1.6 -0.1
v -0.6 1.3 -0.1
v -0.6 1.6 -0.1
v -1.3 3.1 -0.3
v -1.3 3.3 -0.3
v -1.2 3.1 -0.3
v -1.2 3.3 -0.3
v -1.2 3.4 -0.3
v -0.8 3.1 -0.3
v -0.8 3.3 -0.3
v -0.8 3.4 -0.3
v -0.7 3.1 -0.3
v -0.7 3.3 -0.3
v -1.5 2.8 -0.5
v -1.5 2.9 -0.5
v -1.4 2.8 -0.5
v -1.4 2.9 -0.5
v -0.6 2.8 -0.5
v -0.6 2.9 -0.5
v -0.5 2.8 -0.5
v -0.5 2.9 -0.5
v -1.5 2.9 -0.6
v -1.5 3 -0.6
v -1.4 2.9 -0.6
v -1.4 3 -0.6
v -1.4 3.1 -0.6
v -1.2 3.1 -0.6
v -1.2 3.3 -0.6
v -1.1 3 -0.6
v -1.1 3.1 -0.6
v -1.1 3.2 -0.6
v -1.1 3.3 -0.6
v -1.1 3.4 -0.6
v -0.9 3 -0.6
v -0.9 3.1 -0.6
v -0.9 3.2 -0.6
v -0.9 3.3 -0.6
v -0.9 3.4 -0.6
v -0.8 3.1 -0.6
v -0.8 3.3 -0.6
v -0.6 2.9 -0.6
v -0.6 3 -0.6
v -0.6 3.1 -0.6
v -0.5 2.9 -0.6
v -0.5 3 -0.6
v -1.1 3 -0.7
v -1.1 3.1 -0.7
v -1.1 3.2 -0.7
v -1.1 3.3 -0.7
v -0.9 3 -0.7
v -0.9 3.1 -0.7
v -0.9 3.2 -0.7
v -0.9 3.3 -0.7
v -1.2 3 -0.8
v -1.2 3.1 -0.8
v -1.1 3 -0.8
v -1.1 3.1 -0.8
v -0.9 3 -0.8
v -0.9 3.1 -0.8
v -0.8 3 -0.8
v -0.8 3.1 -0.8
v -1.1 0.5 -0.9
v -1.1 1.1 -0.9
v -0.8 0.5 -0.9
v -0.8 1.1 -0.9
v -1.4 1.1 -1
v -1.4 2.2 -1
v -1.4 2.9 -1
v -1.4 3 -1
v -1.3 2.9 -1
v -1.1 2.9 -1
v -0.9 2.9 -1
v -0.7 2.9 -1
v -0.6 1.1 -1
v -0.6 2.2 -1
v -0.6 2.9 -1
v -0.6 3 -1
v -1.6 2.5 -1.1
v -1.6 2.7 -1.1
v -1.5 2.2 -1.1
v -1.5 2.5 -1.1
v -1.5 2.6 -1.1
v -1.5 2.7 -1.1
v -1.5 2.8 -1.1
v -1.4 2.7 -1.1
v -1.4 2.8 -1.1
v -0.6 2.7 -1.1
v -0.6 2.8 -1.1
v -0.5 2.2 -1.1
v -0.5 2.5 -1.1
v -0.5 2.6 -1.1
v -0.5 2.7 -1.1
v -0.5 2.8 -1.1
v -0.4 2.5 -1.1
v -0.4 2.7 -1.1
v -1.5 2.6 -1.2
v -1.5 2.7 -1.2
v -1.4 2.7 -1.2
v -1.4 2.9 -1.2
v -1.3 2.7 -1.2
v -1.3 2.9 -1.2
v -1.1 2.7 -1.2
v -1.1 2.9 -1.2
v -0.9 2.7 -1.2
v -0.9 2.9 -1.2
v -0.7 2.7 -1.2
v -0.7 2.9 -1.2
v -0.6 2.7 -1.2
v -0.6 2.9 -1.2
v -0.5 2.6 -1.2
v -0.5 2.7 -1.2
v -1.3 2.7 -1.3
v -1.3 2.9 -1.3
v -1.1 2.7 -1.3
v -1.1 2.9 -1.3
v -0.9 2.7 -1.3
v -0.9 2.9 -1.3
v -0.7 2.7 -1.3
v -0.7 2.9 -1.3
v -1.1 0.5 -0.6
v -0.8 0.5 -0.6
v -1.1 0.5 -0.9
v -0.8 0.5 -0.9
v -1.4 1.1 -0.2
v -0.6 1.1 -0.2
v -1.1 1.1 -0.6
v -0.8 1.1 -0.6
v -1.1 1.1 -0.9
v -0.8 1.1 -0.9
v -1.4 1.1 -1
v -0.6 1.1 -1
v -1.4 1.3 0.6
v -1.1 1.3 0.6
v -0.9 1.3 0.6
v -0.6 1.3 0.6
v -1.4 1.3 -0.1
v -1.1 1.3 -0.1
v -0.9 1.3 -0.1
v -0.6 1.3 -0.1
v -1.5 2.2 -0.1
v -0.5 2.2 -0.1
v -1.4 2.2 -0.2
v -0.6 2.2 -0.2
v -1.4 2.2 -1
v -0.6 2.2 -1
v -1.5 2.2 -1.1
v -0.5 2.2 -1.1
v -1.4 2.3 0.6
v -1.1 2.3 0.6
v -0.9 2.3 0.6
v -0.6 2.3 0.6
v -1.4 2.3 -5.96046e-08
v -1.1 2.3 -5.96046e-08
v -0.9 2.3 -5.96046e-08
v -0.6 2.3 -5.96046e-08
v -1.6 2.5 -0.1
v -1.5 2.5 -0.1
v -0.5 2.5 -0.1
v -0.4 2.5 -0.1
v -1.5 2.5 -0.8
v -1.5 2.5 -1
v -1.6 2.5 -1.1
v -1.5 2.5 -1.1
v -0.5 2.5 -1.1
v -0.4 2.5 -1.1
v -1.5 2.6 -5.96046e-08
v -1.4 2.6 -5.96046e-08
v -1.1 2.6 -5.96046e-08
v -0.9 2.6 -5.96046e-08
v -0.6 2.6 -5.96046e-08
v -0.5 2.6 -5.96046e-08
v -1.5 2.6 -0.1
v -1.1 2.6 -0.1
v -0.9 2.6 -0.1
v -0.5 2.6 -0.1
v -1.5 2.6 -1.1
v -0.5 2.6 -1.1
v -1.5 2.6 -1.2
v -0.5 2.6 -1.2
v -1.1 2.7 -5.96046e-08
v -0.9 2.7 -5.96046e-08
v -1.1 2.7 -0.1
v -0.9 2.7 -0.1
v -1.3 2.7 -1.2
v -1.1 2.7 -1.2
v -0.9 2.7 -1.2
v -0.7 2.7 -1.2
v -1.3 2.7 -1.3
v -1.1 2.7 -1.3
v -0.9 2.7 -1.3
v -0.7 2.7 -1.3
v -1.5 2.9 -0.5
v -1.4 2.9 -0.5
v -0.6 2.9 -0.5
v -0.5 2.9 -0.5
v -1.5 2.9 -0.6
v -1.4 2.9 -0.6
v -0.6 2.9 -0.6
v -0.5 2.9 -0.6
v -1.1 3.2 -0.6
v -0.9 3.2 -0.6
v -1.1 3.2 -0.7
v -0.9 3.2 -0.7
v -1.4 1.6 0.6
v -1.1 1.6 0.6
v -0.9 1.6 0.6
v -0.6 1.6 0.6
v -1.4 1.6 -0.1
v -1.1 1.6 -0.1
v -0.9 1.6 -0.1
v -0.6 1.6 -0.1
v -1.4 2.6 0.6
v -1.1 2.6 0.6
v -0.9 2.6 0.6
v -0.6 2.6 0.6
v -1.4 2.6 -5.96046e-08
v -1.1 2.6 -5.96046e-08
v -0.9 2.6 -5.96046e-08
v -0.6 2.6 -5.96046e-08
v -1.5 2.7 -5.96046e-08
v -1.1 2.7 -5.96046e-08
v -0.9 2.7 -5.96046e-08
v -0.5 2.7 -5.96046e-08
v -1.6 2.7 -0.1
v -1.5 2.7 -0.1
v -1.1 2.7 -0.1
v -0.9 2.7 -0.1
v -0.5 2.7 -0.1
v -0.4 2.7 -0.1
v -1.6 2.7 -1.1
v -1.5 2.7 -1.1
v -1.4 2.7 -1.1
v -0.6 2.7 -1.1
v -0.5 2.7 -1.1
v -0.4 2.7 -1.1
v -1.5 2.7 -1.2
v -1.4 2.7 -1.2
v -0.6 2.7 -1.2
v -0.5 2.7 -1.2
v -1.1 2.8 -5.96046e-08
v -0.9 2.8 -5.96046e-08
v -1.5 2.8 -0.1
v -1.1 2.8 -0.1
v -0.9 2.8 -0.1
v -0.5 2.8 -0.1
v -1.5 2.8 -0.2
v -1.4 2.8 -0.2
v -0.6 2.8 -0.2
v -0.5 2.8 -0.2
v -1.5 2.8 -0.5
v -1.4 2.8 -0.5
v -0.6 2.8 -0.5
v -0.5 2.8 -0.5
v -1.4 2.8 -1
v -0.6 2.8 -1
v -1.5 2.8 -1.1
v -1.4 2.8 -1.1
v -0.6 2.8 -1.1
v -0.5 2.8 -1.1
v -1.4 2.9 -1
v -1.3 2.9 -1
v -1.1 2.9 -1
v -0.9 2.9 -1
v -0.7 2.9 -1
v -0.6 2.9 -1
v -1.4 2.9 -1.2
v -1.3 2.9 -1.2
v -1.1 2.9 -1.2
v -0.9 2.9 -1.2
v -0.7 2.9 -1.2
v -0.6 2.9 -1.2
v -1.3 2.9 -1.3
v -1.1 2.9 -1.3
v -0.9 2.9 -1.3
v -0.7 2.9 -1.3
v -1.5 3 -0.2
v -1.4 3 -0.2
v -0.6 3 -0.2
v -0.5 3 -0.2
v -1.5 3 -0.6
v -1.4 3 -0.6
v -1.1 3 -0.6
v -0.9 3 -0.6
v -0.6 3 -0.6
v -0.5 3 -0.6
v -1.2 3 -0.7
v -1.1 3 -0.7
v -0.9 3 -0.7
v -0.8 3 -0.7
v -1.2 3 -0.8
v -1.1 3 -0.8
v -0.9 3 -0.8
v -0.8 3 -0.8
v -1.4 3 -1
v -0.6 3 -1
v -1.4 3.1 -0.2
v -1.3 3.1 -0.2
v -0.7 3.1 -0.2
v -0.6 3.1 -0.2
v -1.3 3.1 -0.3
v -1.2 3.1 -0.3
v -0.8 3.1 -0.3
v -0.7 3.1 -0.3
v -1.4 3.1 -0.6
v -1.2 3.1 -0.6
v -1.1 3.1 -0.6
v -0.9 3.1 -0.6
v -0.8 3.1 -0.6
v -0.6 3.1 -0.6
v -1.2 3.1 -0.7
v -1.1 3.1 -0.7
v -0.9 3.1 -0.7
v -0.8 3.1 -0.7
v -1.2 3.1 -0.8
v -1.1 3.1 -0.8
v -0.9 3.1 -0.8
v -0.8 3.1 -0.8
v -1.3 3.3 -0.2
v -1.2 3.3 -0.2
v -0.8 3.3 -0.2
v -0.7 3.3 -0.2
v -1.3 3.3 -0.3
v -1.2 3.3 -0.3
v -0.8 3.3 -0.3
v -0.7 3.3 -0.3
v -1.1 3.3 -0.5
v -0.9 3.3 -0.5
v -1.2 3.3 -0.6
v -1.1 3.3 -0.6
v -0.9 3.3 -0.6
v -0.8 3.3 -0.6
v -1.1 3.3 -0.7
v -0.9 3.3 -0.7
v -1.2 3.4 -0.2
v -0.8 3.4 -0.2
v -1.2 3.4 -0.3
v -0.8 3.4 -0.3
v -1.1 3.4 -0.5
v -0.9 3.4 -0.5
v -1.1 3.4 -0.6
v -0.9 3.4 -0.6

# faces
f 3/3/1 2/3/1 1/3/1
f 4/3/1 2/3/1 3/3/1
f 7/6/1 6/6/1 5/6/1
f 8/6/1 6/6/1 7/6/1
f 9/6/1 7/6/1 5/6/1
f 10/3/1 8/3/1 7/3/1
f 10/6/1 7/6/1 9/6/1
f 11/6/1 6/6/1 8/6/1
f 11/3/1 8/3/1 10/3/1
f 12/6/1 6/6/1 11/6/1
f 17/4/1 14/4/1 13/4/1
f 18/4/1 14/4/1 17/4/1
f 19/3/1 16/3/1 15/3/1
f 20/3/1 16/3/1 19/3/1
f 21/3/1 19/3/1 18/3/1
f 22/3/1 19/3/1 21/3/1
f 23/3/1 19/3/1 22/3/1
f 24/3/1 19/3/1 23/3/1
f 25/2/1 23/2/1 22/2/1
f 27/2/1 25/2/1 22/2/1
f 27/2/1 26/2/1 25/2/1
f 28/2/1 26/2/1 27/2/1
f 33/6/1 32/6/1 31/6/1
f 34/6/1 32/6/1 33/6/1
f 35/6/1 30/6/1 29/6/1
f 36/6/1 30/6/1 35/6/1
f 39/6/1 38/6/1 37/6/1
f 40/6/1 38/6/1 39/6/1
f 45/7/1 42/7/1 41/7/1
f 46/6/1 44/6/1 43/6/1
f 47/6/1 44/6/1 46/6/1
f 48/7/1 45/7/1 44/7/1
f 48/6/1 44/6/1 47/6/1
f 49/7/1 42/7/1 45/7/1
f 49/7/1 45/7/1 48/7/1
f 51/6/1 48/6/1 47/6/1
f 52/6/1 48/6/1 51/6/1
f 53/2/1 51/2/1 50/2/1
f 54/2/1 51/2/1 53/2/1
f 57/7/1 56/7/1 55/7/1
f 58/7/1 56/7/1 57/7/1
f 61/7/1 60/7/1 59/7/1
f 62/7/1 60/7/1 61/7/1
f 67/7/1 64/7/1 63/7/1
f 68/7/1 64/7/1 67/7/1
f 70/5/1 66/5/1 65/5/1
f 71/5/1 66/5/1 70/5/1
f 72/7/1 70/7/1 69/7/1
f 73/7/1 70/7/1 72/7/1
f 76/6/1 75/6/1 74/6/1
f 77/6/1 75/6/1 76/6/1
f 80/1/1 79/1/1 78/1/1
f 81/1/1 79/1/1 80/1/1
f 84/2/1 83/2/1 82/2/1
f 85/2/1 83/2/1 84/2/1
f 89/7/1 87/7/1 86/7/1
f 90/7/1 87/7/1 89/7/1
f 91/7/1 89/7/1 88/7/1
f 92/7/1 89/7/1 91/7/1
f 95/6/1 94/6/1 93/6/1
f 96/6/1 94/6/1 95/6/1
f 99/6/1 98/6/1 97/6/1
f 100/6/1 98/6/1 99/6/1
f 102/4/1 101/4/1 100/4/1
f 103/4/1 101/4/1 102/4/1
f 106/7/1 105/7/1 104/7/1
f 107/7/1 105/7/1 106/7/1
f 110/7/1 109/7/1 108/7/1
f 111/7/1 109/7/1 110/7/1
f 112/6/2 113/6/2 114/6/2
f 114/6/2 113/6/2 115/6/2
f 116/6/2 117/6/2 118/6/2
f 118/6/2 117/6/2 119/6/2
f 119/4/2 120/4/2 121/4/2
f 121/4/2 120/4/2 122/4/2
f 123/7/2 124/7/2 125/7/2
f 125/7/2 124/7/2 126/7/2
f 127/7/2 128/7/2 129/7/2
f 129/7/2 128/7/2 130/7/2
f 131/1/2 132/1/2 133/1/2
f 133/1/2 132/1/2 134/1/2
f 135/2/2 136/2/2 137/2/2
f 137/2/2 136/2/2 138/2/2
f 139/7/2 140/7/2 142/7/2
f 142/7/2 140/7/2 143/7/2
f 141/7/2 142/7/2 144/7/2
f 144/7/2 142/7/2 145/7/2
f 146/6/2 147/6/2 148/6/2
f 148/6/2 147/6/2 149/6/2
f 150/7/2 151/7/2 154/7/2
f 154/7/2 151/7/2 155/7/2
f 152/5/2 153/5/2 157/5/2
f 157/5/2 153/5/2 158/5/2
f 156/7/2 157/7/2 159/7/2
f 159/7/2 157/7/2 160/7/2
f 161/7/2 162/7/2 163/7/2
f 163/7/2 162/7/2 164/7/2
f 165/7/2 166/7/2 167/7/2
f 167/7/2 166/7/2 168/7/2
f 171/6/2 172/6/2 173/6/2
f 173/6/2 172/6/2 174/6/2
f 169/6/2 170/6/2 175/6/2
f 175/6/2 170/6/2 176/6/2
f 177/6/2 178/6/2 179/6/2
f 179/6/2 178/6/2 180/6/2
f 181/7/2 182/7/2 185/7/2
f 183/6/2 184/6/2 186/6/2
f 186/6/2 184/6/2 187/6/2
f 184/7/2 185/7/2 188/7/2
f 187/6/2 184/6/2 188/6/2
f 185/7/2 182/7/2 189/7/2
f 188/7/2 185/7/2 189/7/2
f 187/6/2 188/6/2 191/6/2
f 191/6/2 188/6/2 192/6/2
f 190/2/2 191/2/2 193/2/2
f 193/2/2 191/2/2 194/2/2
f 195/6/2 196/6/2 197/6/2
f 197/6/2 196/6/2 198/6/2
f 199/4/2 200/4/2 203/4/2
f 203/4/2 200/4/2 204/4/2
f 201/3/2 202/3/2 205/3/2
f 205/3/2 202/3/2 206/3/2
f 204/3/2 205/3/2 207/3/2
f 207/3/2 205/3/2 208/3/2
f 208/3/2 205/3/2 209/3/2
f 209/3/2 205/3/2 210/3/2
f 208/2/2 209/2/2 211/2/2
f 208/2/2 211/2/2 213/2/2
f 211/2/2 212/2/2 213/2/2
f 213/2/2 212/2/2 214/2/2
f 215/3/2 216/3/2 217/3/2
f 217/3/2 216/3/2 218/3/2
f 223/6/3 220/6/3 219/6/3
f 224/6/3 220/6/3 223/6/3
f 225/6/3 222/6/3 221/6/3
f 226/6/3 222/6/3 225/6/3
f 231/6/3 228/6/3 227/6/3
f 232/6/3 228/6/3 231/6/3
f 233/6/3 230/6/3 229/6/3
f 234/6/3 230/6/3 233/6/3
f 237/4/3 236/4/3 235/4/3
f 238/4/3 236/4/3 237/4/3
f 239/4/3 236/4/3 238/4/3
f 242/1/3 240/1/3 239/1/3
f 243/1/3 240/1/3 242/1/3
f 244/4/3 242/4/3 241/4/3
f 245/4/3 242/4/3 244/4/3
f 246/4/3 242/4/3 245/4/3
f 250/3/3 248/3/3 247/3/3
f 251/3/3 248/3/3 250/3/3
f 252/3/3 248/3/3 251/3/3
f 254/6/3 250/6/3 249/6/3
f 254/6/3 251/6/3 250/6/3
f 255/3/3 253/3/3 252/3/3
f 256/3/3 253/3/3 255/3/3
f 257/6/3 254/6/3 249/6/3
f 257/6/3 255/6/3 254/6/3
f 258/6/3 255/6/3 257/6/3
f 260/6/3 257/6/3 249/6/3
f 261/6/3 257/6/3 260/6/3
f 262/6/3 257/6/3 261/6/3
f 263/3/3 259/3/3 258/3/3
f 264/3/3 259/3/3 263/3/3
f 265/3/3 262/3/3 261/3/3
f 265/3/3 263/3/3 262/3/3
f 266/3/3 263/3/3 265/3/3
f 271/2/3 268/2/3 267/2/3
f 272/2/3 268/2/3 271/2/3
f 274/2/3 273/2/3 272/2/3
f 276/2/3 274/2/3 272/2/3
f 276/7/3 275/7/3 274/7/3
f 277/7/3 275/7/3 276/7/3
f 279/2/3 276/2/3 272/2/3
f 279/5/3 277/5/3 276/5/3
f 280/7/3 278/7/3 277/7/3
f 280/5/3 277/5/3 279/5/3
f 281/7/3 278/7/3 280/7/3
f 282/2/3 279/2/3 272/2/3
f 282/7/3 280/7/3 279/7/3
f 283/7/3 280/7/3 282/7/3
f 284/6/3 270/6/3 269/6/3
f 285/6/3 270/6/3 284/6/3
f 286/6/3 272/6/3 271/6/3
f 287/2/3 282/2/3 272/2/3
f 287/6/3 272/6/3 286/6/3
f 288/2/3 282/2/3 287/2/3
f 289/2/3 287/2/3 286/2/3
f 290/2/3 287/2/3 289/2/3
f 293/7/3 292/7/3 291/7/3
f 294/7/3 292/7/3 293/7/3
f 297/6/3 296/6/3 295/6/3
f 298/6/3 296/6/3 297/6/3
f 301/7/3 300/7/3 299/7/3
f 302/7/3 300/7/3 301/7/3
f 305/7/3 304/7/3 303/7/3
f 306/7/3 304/7/3 305/7/3
f 307/6/4 308/6/4 309/6/4
f 309/6/4 308/6/4 310/6/4
f 311/6/4 312/6/4 313/6/4
f 313/6/4 312/6/4 314/6/4
f 315/6/4 316/6/4 317/6/4
f 317/6/4 316/6/4 318/6/4
f 319/6/4 320/6/4 321/6/4
f 321/6/4 320/6/4 322/6/4
f 323/7/4 324/7/4 325/7/4
f 325/7/4 324/7/4 326/7/4
f 326/7/4 327/7/4 329/7/4
f 329/7/4 327/7/4 330/7/4
f 328/7/4 329/7/4 331/7/4
f 331/7/4 329/7/4 332/7/4
f 333/2/4 334/2/4 335/2/4
f 335/2/4 334/2/4 336/2/4
f 337/2/4 338/2/4 339/2/4
f 339/2/4 338/2/4 340/2/4
f 341/2/4 342/2/4 343/2/4
f 343/2/4 342/2/4 344/2/4
f 344/2/4 345/2/4 346/2/4
f 344/2/4 346/2/4 348/2/4
f 346/5/4 347/5/4 349/5/4
f 348/2/4 346/2/4 349/2/4
f 349/5/4 347/5/4 350/5/4
f 350/5/4 347/5/4 351/5/4
f 349/5/4 350/5/4 354/5/4
f 354/5/4 350/5/4 355/5/4
f 351/7/4 352/7/4 356/7/4
f 356/7/4 352/7/4 357/7/4
f 354/5/4 355/5/4 358/5/4
f 353/2/4 354/2/4 358/2/4
f 355/5/4 356/5/4 358/5/4
f 358/5/4 356/5/4 359/5/4
f 353/2/4 358/2/4 361/2/4
f 361/2/4 358/2/4 362/2/4
f 360/2/4 361/2/4 363/2/4
f 363/2/4 361/2/4 364/2/4
f 365/2/4 366/2/4 369/2/4
f 369/2/4 366/2/4 370/2/4
f 367/7/4 368/7/4 371/7/4
f 371/7/4 368/7/4 372/7/4
f 373/7/4 374/7/4 375/7/4
f 375/7/4 374/7/4 376/7/4
f 377/7/4 378/7/4 379/7/4
f 379/7/4 378/7/4 380/7/4
f 381/6/4 382/6/4 383/6/4
f 383/6/4 382/6/4 384/6/4
f 387/6/4 388/6/4 389/6/4
f 389/6/4 388/6/4 390/6/4
f 390/6/4 388/6/4 391/6/4
f 391/6/4 388/6/4 392/6/4
f 385/6/4 386/6/4 393/6/4
f 393/6/4 386/6/4 394/6/4
f 392/6/4 388/6/4 395/6/4
f 395/6/4 388/6/4 396/6/4
f 397/3/4 398/3/4 400/3/4
f 400/3/4 398/3/4 401/3/4
f 401/3/4 398/3/4 402/3/4
f 402/3/4 403/3/4 404/3/4
f 404/3/4 403/3/4 405/3/4
f 399/6/4 400/6/4 408/6/4
f 400/6/4 401/6/4 408/6/4
f 408/6/4 401/6/4 409/6/4
f 409/6/4 401/6/4 410/6/4
f 406/3/4 407/3/4 411/3/4
f 411/3/4 407/3/4 412/3/4
f 409/3/4 410/3/4 413/3/4
f 410/3/4 411/3/4 413/3/4
f 413/3/4 411/3/4 414/3/4
f 415/3/4 416/3/4 417/3/4
f 415/3/4 417/3/4 419/3/4
f 417/7/4 418/7/4 419/7/4
f 419/7/4 418/7/4 420/7/4
f 415/3/4 419/3/4 421/3/4
f 415/3/4 421/3/4 423/3/4
f 421/7/4 422/7/4 423/7/4
f 423/7/4 422/7/4 424/7/4
f 415/3/4 423/3/4 425/3/4
f 415/3/4 425/3/4 427/3/4
f 425/7/4 426/7/4 427/7/4
f 427/7/4 426/7/4 428/7/4
f 415/3/4 427/3/4 429/3/4
f 429/3/4 427/3/4 430/3/4
f 431/7/4 432/7/4 433/7/4
f 433/7/4 432/7/4 434/7/4
f 435/7/4 436/7/4 437/7/4
f 437/7/4 436/7/4 438/7/4
f 441/6/5 440/6/5 439/6/5
f 442/6/5 440/6/5 441/6/5
f 445/6/5 444/6/5 443/6/5
f 446/6/5 444/6/5 445/6/5
f 447/6/5 445/6/5 443/6/5
f 448/6/5 444/6/5 446/6/5
f 449/6/5 447/6/5 443/6/5
f 449/6/5 448/6/5 447/6/5
f 450/6/5 444/6/5 448/6/5
f 450/6/5 448/6/5 449/6/5
f 455/6/5 452/6/5 451/6/5
f 456/6/5 452/6/5 455/6/5
f 457/6/5 454/6/5 453/6/5
f 458/6/5 454/6/5 457/6/5
f 461/6/5 460/6/5 459/6/5
f 462/6/5 460/6/5 461/6/5
f 463/6/5 461/6/5 459/6/5
f 464/6/5 460/6/5 462/6/5
f 465/6/5 463/6/5 459/6/5
f 465/6/5 464/6/5 463/6/5
f 466/6/5 460/6/5 464/6/5
f 466/6/5 464/6/5 465/6/5
f 471/6/5 468/6/5 467/6/5
f 472/6/5 468/6/5 471/6/5
f 473/6/5 470/6/5 469/6/5
f 474/6/5 470/6/5 473/6/5
f 479/3/5 476/3/5 475/3/5
f 480/3/5 479/3/5 475/3/5
f 481/3/5 480/3/5 475/3/5
f 482/3/5 480/3/5 481/3/5
f 483/3/5 478/3/5 477/3/5
f 484/3/5 478/3/5 483/3/5
f 491/4/5 486/4/5 485/4/5
f 491/4/5 487/4/5 486/4/5
f 492/4/5 487/4/5 491/4/5
f 493/4/5 490/4/5 489/4/5
f 493/4/5 489/4/5 488/4/5
f 494/4/5 490/4/5 493/4/5
f 497/3/5 496/3/5 495/3/5
f 498/3/5 496/3/5 497/3/5
f 501/1/5 500/1/5 499/1/5
f 502/1/5 500/1/5 501/1/5
f 507/7/5 504/7/5 503/7/5
f 508/7/5 504/7/5 507/7/5
f 509/7/5 506/7/5 505/7/5
f 510/7/5 506/7/5 509/7/5
f 515/2/5 512/2/5 511/2/5
f 516/2/5 512/2/5 515/2/5
f 517/2/5 514/2/5 513/2/5
f 518/2/5 514/2/5 517/2/5
f 521/7/5 520/7/5 519/7/5
f 522/7/5 520/7/5 521/7/5
f 523/6/6 524/6/6 527/6/6
f 527/6/6 524/6/6 528/6/6
f 525/6/6 526/6/6 529/6/6
f 529/6/6 526/6/6 530/6/6
f 531/6/6 532/6/6 535/6/6
f 535/6/6 532/6/6 536/6/6
f 533/6/6 534/6/6 537/6/6
f 537/6/6 534/6/6 538/6/6
f 539/4/6 540/4/6 544/4/6
f 544/4/6 540/4/6 545/4/6
f 541/4/6 542/4/6 546/4/6
f 546/4/6 542/4/6 547/4/6
f 543/3/6 544/3/6 549/3/6
f 549/3/6 544/3/6 550/3/6
f 547/3/6 548/3/6 553/3/6
f 553/3/6 548/3/6 554/3/6
f 550/3/6 551/3/6 555/3/6
f 555/3/6 551/3/6 556/3/6
f 552/3/6 553/3/6 557/3/6
f 557/3/6 553/3/6 558/3/6
f 559/1/6 560/1/6 562/1/6
f 562/1/6 560/1/6 563/1/6
f 561/3/6 562/3/6 565/3/6
f 563/3/6 564/3/6 565/3/6
f 562/3/6 563/3/6 565/3/6
f 565/3/6 564/3/6 566/3/6
f 566/3/6 564/3/6 567/3/6
f 567/3/6 564/3/6 568/3/6
f 569/3/6 570/3/6 573/3/6
f 571/3/6 572/3/6 574/3/6
f 569/3/6 573/3/6 575/3/6
f 575/3/6 573/3/6 576/3/6
f 574/3/6 572/3/6 577/3/6
f 577/3/6 572/3/6 578/3/6
f 579/7/6 580/7/6 585/7/6
f 580/6/6 581/6/6 586/6/6
f 585/7/6 580/7/6 586/7/6
f 581/7/6 582/7/6 587/7/6
f 586/6/6 581/6/6 587/6/6
f 582/6/6 583/6/6 588/6/6
f 587/7/6 582/7/6 588/7/6
f 583/7/6 584/7/6 589/7/6
f 588/6/6 583/6/6 589/6/6
f 589/7/6 584/7/6 590/7/6
f 586/7/6 587/7/6 591/7/6
f 591/7/6 587/7/6 592/7/6
f 588/7/6 589/7/6 593/7/6
f 593/7/6 589/7/6 594/7/6
f 595/2/6 596/2/6 599/2/6
f 599/2/6 596/2/6 600/2/6
f 597/2/6 598/2/6 603/2/6
f 603/2/6 598/2/6 604/2/6
f 600/6/6 601/6/6 605/6/6
f 605/6/6 601/6/6 606/6/6
f 602/6/6 603/6/6 607/6/6
f 607/6/6 603/6/6 608/6/6
f 600/6/6 605/6/6 609/6/6
f 606/6/6 607/6/6 610/6/6
f 610/6/6 607/6/6 611/6/6
f 608/6/6 603/6/6 612/6/6
f 610/6/6 611/6/6 613/6/6
f 611/6/6 612/6/6 613/6/6
f 600/6/6 609/6/6 613/6/6
f 609/6/6 610/6/6 613/6/6
f 612/6/6 603/6/6 614/6/6
f 613/6/6 612/6/6 614/6/6
f 615/2/6 616/2/6 619/2/6
f 617/2/6 618/2/6 622/2/6
f 619/2/6 620/2/6 623/2/6
f 615/2/6 619/2/6 623/2/6
f 623/2/6 620/2/6 624/2/6
f 621/2/6 622/2/6 627/2/6
f 622/2/6 618/2/6 628/2/6
f 627/2/6 622/2/6 628/2/6
f 625/2/6 626/2/6 630/2/6
f 630/2/6 626/2/6 631/2/6
f 629/7/6 630/7/6 633/7/6
f 633/7/6 630/7/6 634/7/6
f 631/7/6 632/7/6 635/7/6
f 635/7/6 632/7/6 636/7/6
f 637/7/6 638/7/6 641/7/6
f 641/7/6 638/7/6 642/7/6
f 639/7/6 640/7/6 643/7/6
f 643/7/6 640/7/6 644/7/6
f 642/5/6 643/5/6 645/5/6
f 645/5/6 643/5/6 646/5/6
f 642/5/6 645/5/6 647/5/6
f 647/5/6 645/5/6 648/5/6
f 646/5/6 643/5/6 649/5/6
f 649/5/6 643/5/6 650/5/6
f 648/7/6 649/7/6 651/7/6
f 651/7/6 649/7/6 652/7/6
f 653/7/6 654/7/6 655/7/6
f 655/7/6 654/7/6 656/7/6
f 657/7/6 658/7/6 659/7/6
f 659/7/6 658/7/6 660/7/6
